solid OpenSCAD_Model
  facet normal -1 0 0
    outer loop
      vertex -6 -3.6 -2.5
      vertex -6 -3.6 -0.5
      vertex -6 18.2186 -2.5
    endloop
  endfacet
  facet normal -1 0 0
    outer loop
      vertex -6 18.2186 -2.5
      vertex -6 -3.6 -0.5
      vertex -6 12.8076 -0.5
    endloop
  endfacet
  facet normal -1 0 0
    outer loop
      vertex -6 18.2186 -2.5
      vertex -6 12.8076 -0.5
      vertex -6 12.8076 6.3
    endloop
  endfacet
  facet normal -1 0 0
    outer loop
      vertex -6 18.2186 -2.5
      vertex -6 12.8076 6.3
      vertex -6 18.2186 6.3
    endloop
  endfacet
  facet normal 0 -1 0
    outer loop
      vertex -6 -3.6 -0.5
      vertex -6 -3.6 -2.5
      vertex 6 -3.6 -2.5
    endloop
  endfacet
  facet normal 0 -1 0
    outer loop
      vertex 6 -3.6 -0.5
      vertex -6 -3.6 -0.5
      vertex 6 -3.6 -2.5
    endloop
  endfacet
  facet normal 0 0 -1
    outer loop
      vertex 1.6 0 -2.5
      vertex -6 18.2186 -2.5
      vertex 6 -3.6 -2.5
    endloop
  endfacet
  facet normal 0 0 -1
    outer loop
      vertex 6 -3.6 -2.5
      vertex -6 18.2186 -2.5
      vertex 6 18.2186 -2.5
    endloop
  endfacet
  facet normal 0 0 -1
    outer loop
      vertex -6 -3.6 -2.5
      vertex -6 18.2186 -2.5
      vertex -1.6 0 -2.5
    endloop
  endfacet
  facet normal 0 0 -1
    outer loop
      vertex -6 -3.6 -2.5
      vertex -1.6 0 -2.5
      vertex -0.8 -1.38564 -2.5
    endloop
  endfacet
  facet normal 0 0 -1
    outer loop
      vertex -6 -3.6 -2.5
      vertex -0.8 -1.38564 -2.5
      vertex 6 -3.6 -2.5
    endloop
  endfacet
  facet normal 0 0 -1
    outer loop
      vertex -0.8 -1.38564 -2.5
      vertex 0.8 -1.38564 -2.5
      vertex 6 -3.6 -2.5
    endloop
  endfacet
  facet normal 0 0 -1
    outer loop
      vertex 0.8 1.38564 -2.5
      vertex -6 18.2186 -2.5
      vertex 1.6 0 -2.5
    endloop
  endfacet
  facet normal 0 0 -1
    outer loop
      vertex -0.8 1.38564 -2.5
      vertex -6 18.2186 -2.5
      vertex 0.8 1.38564 -2.5
    endloop
  endfacet
  facet normal 0 0 -1
    outer loop
      vertex -1.6 0 -2.5
      vertex -6 18.2186 -2.5
      vertex -0.8 1.38564 -2.5
    endloop
  endfacet
  facet normal 0 0 -1
    outer loop
      vertex 1.6 0 -2.5
      vertex 6 -3.6 -2.5
      vertex 0.8 -1.38564 -2.5
    endloop
  endfacet
  facet normal 0 1 0
    outer loop
      vertex -6 18.2186 -2.5
      vertex -6 18.2186 6.3
      vertex 6 18.2186 -2.5
    endloop
  endfacet
  facet normal 0 1 0
    outer loop
      vertex 6 18.2186 -2.5
      vertex -6 18.2186 6.3
      vertex 6 18.2186 6.3
    endloop
  endfacet
  facet normal 0 0 1
    outer loop
      vertex 1.48625 14.1407 6.3
      vertex 4.39379 13.5227 6.3
      vertex -6 18.2186 6.3
    endloop
  endfacet
  facet normal 0 0 1
    outer loop
      vertex -6 18.2186 6.3
      vertex -6 12.8076 6.3
      vertex -4.39379 13.5227 6.3
    endloop
  endfacet
  facet normal 0 0 1
    outer loop
      vertex 4.39379 13.5227 6.3
      vertex 6 12.8076 6.3
      vertex -6 18.2186 6.3
    endloop
  endfacet
  facet normal 0 0 1
    outer loop
      vertex -1.48625 14.1407 6.3
      vertex -6 18.2186 6.3
      vertex -4.39379 13.5227 6.3
    endloop
  endfacet
  facet normal 0 0 1
    outer loop
      vertex -1.48625 14.1407 6.3
      vertex 1.48625 14.1407 6.3
      vertex -6 18.2186 6.3
    endloop
  endfacet
  facet normal 0 0 1
    outer loop
      vertex 6 12.8076 6.3
      vertex 6 18.2186 6.3
      vertex -6 18.2186 6.3
    endloop
  endfacet
  facet normal 0.406737 -0.913545 0
    outer loop
      vertex -4.39379 13.5227 -0.5
      vertex -4.39379 13.5227 6.3
      vertex -6 12.8076 6.3
    endloop
  endfacet
  facet normal 0.406737 -0.913545 0
    outer loop
      vertex -6 12.8076 -0.5
      vertex -4.39379 13.5227 -0.5
      vertex -6 12.8076 6.3
    endloop
  endfacet
  facet normal 0 0 1
    outer loop
      vertex 6 -3.6 -0.5
      vertex 6 12.8076 -0.5
      vertex 4.39379 13.5227 -0.5
    endloop
  endfacet
  facet normal 0 0 1
    outer loop
      vertex -1.48625 14.1407 -0.5
      vertex 6 -3.6 -0.5
      vertex 1.48625 14.1407 -0.5
    endloop
  endfacet
  facet normal 0 0 1
    outer loop
      vertex 1.48625 14.1407 -0.5
      vertex 6 -3.6 -0.5
      vertex 4.39379 13.5227 -0.5
    endloop
  endfacet
  facet normal 0 0 1
    outer loop
      vertex -4.39379 13.5227 -0.5
      vertex 6 -3.6 -0.5
      vertex -1.48625 14.1407 -0.5
    endloop
  endfacet
  facet normal 0 0 1
    outer loop
      vertex -6 12.8076 -0.5
      vertex 6 -3.6 -0.5
      vertex -4.39379 13.5227 -0.5
    endloop
  endfacet
  facet normal 0 0 1
    outer loop
      vertex 0.8 1.38564 -0.5
      vertex 6 -3.6 -0.5
      vertex -6 12.8076 -0.5
    endloop
  endfacet
  facet normal 0 0 1
    outer loop
      vertex -6 -3.6 -0.5
      vertex -1.6 0 -0.5
      vertex -6 12.8076 -0.5
    endloop
  endfacet
  facet normal 0 0 1
    outer loop
      vertex -1.6 0 -0.5
      vertex -0.8 1.38564 -0.5
      vertex -6 12.8076 -0.5
    endloop
  endfacet
  facet normal 0 0 1
    outer loop
      vertex -0.8 1.38564 -0.5
      vertex 0.8 1.38564 -0.5
      vertex -6 12.8076 -0.5
    endloop
  endfacet
  facet normal 0 0 1
    outer loop
      vertex 1.6 0 -0.5
      vertex 6 -3.6 -0.5
      vertex 0.8 1.38564 -0.5
    endloop
  endfacet
  facet normal 0 0 1
    outer loop
      vertex -6 -3.6 -0.5
      vertex 6 -3.6 -0.5
      vertex 0.8 -1.38564 -0.5
    endloop
  endfacet
  facet normal 0 0 1
    outer loop
      vertex -6 -3.6 -0.5
      vertex -0.8 -1.38564 -0.5
      vertex -1.6 0 -0.5
    endloop
  endfacet
  facet normal 0 0 1
    outer loop
      vertex -6 -3.6 -0.5
      vertex 0.8 -1.38564 -0.5
      vertex -0.8 -1.38564 -0.5
    endloop
  endfacet
  facet normal 0 0 1
    outer loop
      vertex 1.6 0 -0.5
      vertex 0.8 -1.38564 -0.5
      vertex 6 -3.6 -0.5
    endloop
  endfacet
  facet normal 1 0 0
    outer loop
      vertex 6 -3.6 -0.5
      vertex 6 -3.6 -2.5
      vertex 6 18.2186 -2.5
    endloop
  endfacet
  facet normal 1 0 0
    outer loop
      vertex 6 12.8076 -0.5
      vertex 6 -3.6 -0.5
      vertex 6 18.2186 -2.5
    endloop
  endfacet
  facet normal 1 0 0
    outer loop
      vertex 6 18.2186 6.3
      vertex 6 12.8076 -0.5
      vertex 6 18.2186 -2.5
    endloop
  endfacet
  facet normal 1 0 0
    outer loop
      vertex 6 12.8076 6.3
      vertex 6 12.8076 -0.5
      vertex 6 18.2186 6.3
    endloop
  endfacet
  facet normal 0.866025 0.5 0
    outer loop
      vertex -1.6 0 -0.5
      vertex -0.8 -1.38564 -0.5
      vertex -0.8 -1.38564 -2.5
    endloop
  endfacet
  facet normal 0.866025 0.5 0
    outer loop
      vertex -1.6 0 -2.5
      vertex -1.6 0 -0.5
      vertex -0.8 -1.38564 -2.5
    endloop
  endfacet
  facet normal 0.866025 -0.5 0
    outer loop
      vertex -0.8 1.38564 -2.5
      vertex -0.8 1.38564 -0.5
      vertex -1.6 0 -0.5
    endloop
  endfacet
  facet normal 0.866025 -0.5 0
    outer loop
      vertex -1.6 0 -2.5
      vertex -0.8 1.38564 -2.5
      vertex -1.6 0 -0.5
    endloop
  endfacet
  facet normal 0 -1 0
    outer loop
      vertex 0.8 1.38564 -2.5
      vertex 0.8 1.38564 -0.5
      vertex -0.8 1.38564 -0.5
    endloop
  endfacet
  facet normal 0 -1 0
    outer loop
      vertex -0.8 1.38564 -2.5
      vertex 0.8 1.38564 -2.5
      vertex -0.8 1.38564 -0.5
    endloop
  endfacet
  facet normal -0.866025 -0.5 0
    outer loop
      vertex 1.6 0 -0.5
      vertex 0.8 1.38564 -0.5
      vertex 1.6 0 -2.5
    endloop
  endfacet
  facet normal -0.866025 -0.5 0
    outer loop
      vertex 1.6 0 -2.5
      vertex 0.8 1.38564 -0.5
      vertex 0.8 1.38564 -2.5
    endloop
  endfacet
  facet normal -0.866025 0.5 0
    outer loop
      vertex 1.6 0 -0.5
      vertex 1.6 0 -2.5
      vertex 0.8 -1.38564 -0.5
    endloop
  endfacet
  facet normal -0.866025 0.5 0
    outer loop
      vertex 0.8 -1.38564 -0.5
      vertex 1.6 0 -2.5
      vertex 0.8 -1.38564 -2.5
    endloop
  endfacet
  facet normal 0 1 0
    outer loop
      vertex 0.8 -1.38564 -0.5
      vertex 0.8 -1.38564 -2.5
      vertex -0.8 -1.38564 -0.5
    endloop
  endfacet
  facet normal 0 1 0
    outer loop
      vertex -0.8 -1.38564 -0.5
      vertex 0.8 -1.38564 -2.5
      vertex -0.8 -1.38564 -2.5
    endloop
  endfacet
  facet normal -0.406737 -0.913545 0
    outer loop
      vertex 6 12.8076 -0.5
      vertex 6 12.8076 6.3
      vertex 4.39379 13.5227 6.3
    endloop
  endfacet
  facet normal -0.406737 -0.913545 0
    outer loop
      vertex 4.39379 13.5227 -0.5
      vertex 6 12.8076 -0.5
      vertex 4.39379 13.5227 6.3
    endloop
  endfacet
  facet normal -0.207912 -0.978148 0
    outer loop
      vertex 4.39379 13.5227 -0.5
      vertex 4.39379 13.5227 6.3
      vertex 1.48625 14.1407 6.3
    endloop
  endfacet
  facet normal -0.207912 -0.978148 0
    outer loop
      vertex 1.48625 14.1407 -0.5
      vertex 4.39379 13.5227 -0.5
      vertex 1.48625 14.1407 6.3
    endloop
  endfacet
  facet normal 0 -1 0
    outer loop
      vertex 1.48625 14.1407 -0.5
      vertex 1.48625 14.1407 6.3
      vertex -1.48625 14.1407 6.3
    endloop
  endfacet
  facet normal 0 -1 0
    outer loop
      vertex -1.48625 14.1407 -0.5
      vertex 1.48625 14.1407 -0.5
      vertex -1.48625 14.1407 6.3
    endloop
  endfacet
  facet normal 0.207912 -0.978148 0
    outer loop
      vertex -1.48625 14.1407 -0.5
      vertex -1.48625 14.1407 6.3
      vertex -4.39379 13.5227 6.3
    endloop
  endfacet
  facet normal 0.207912 -0.978148 0
    outer loop
      vertex -4.39379 13.5227 -0.5
      vertex -1.48625 14.1407 -0.5
      vertex -4.39379 13.5227 6.3
    endloop
  endfacet
endsolid OpenSCAD_Model
