solid OpenSCAD_Model
  facet normal 0 0 -1
    outer loop
      vertex -32.2 38 0
      vertex -31.8522 39.8604 0
      vertex -31.8522 36.1396 0
    endloop
  endfacet
  facet normal 0 0 -1
    outer loop
      vertex -31.8522 36.1396 0
      vertex -31.8522 39.8604 0
      vertex -30.8559 41.4695 0
    endloop
  endfacet
  facet normal 0 0 -1
    outer loop
      vertex -31.8522 36.1396 0
      vertex -30.8559 41.4695 0
      vertex -29.3456 42.6101 0
    endloop
  endfacet
  facet normal 0 0 -1
    outer loop
      vertex -31.8522 36.1396 0
      vertex -29.3456 42.6101 0
      vertex -27.5252 43.128 0
    endloop
  endfacet
  facet normal 0 0 -1
    outer loop
      vertex -31.8522 36.1396 0
      vertex -27.5252 43.128 0
      vertex -25.6406 42.9534 0
    endloop
  endfacet
  facet normal 0 0 -1
    outer loop
      vertex -27.925 39.5155 0
      vertex -25.6406 42.9534 0
      vertex -23.9464 42.1098 0
    endloop
  endfacet
  facet normal 0 0 -1
    outer loop
      vertex -26.175 39.5155 0
      vertex -23.8463 42 0
      vertex -11.75 42 0
    endloop
  endfacet
  facet normal 0 0 -1
    outer loop
      vertex -17.05 34 0
      vertex -11.75 42 0
      vertex -11.75 25 0
    endloop
  endfacet
  facet normal 0 0 -1
    outer loop
      vertex 17.05 25 0
      vertex 11.75 25 0
      vertex 17.05 34 0
    endloop
  endfacet
  facet normal 0 0 -1
    outer loop
      vertex 26.175 39.5155 0
      vertex 27.5252 43.128 0
      vertex 29.3456 42.6101 0
    endloop
  endfacet
  facet normal 0 0 -1
    outer loop
      vertex 28.8 38 0
      vertex 30.8559 41.4695 0
      vertex 31.8522 39.8604 0
    endloop
  endfacet
  facet normal 0 0 -1
    outer loop
      vertex 27.925 36.4845 0
      vertex 31.8522 39.8604 0
      vertex 32.2 38 0
    endloop
  endfacet
  facet normal 0 0 -1
    outer loop
      vertex 25.6406 33.0466 0
      vertex 32.2 38 0
      vertex 31.8522 36.1396 0
    endloop
  endfacet
  facet normal 0 0 -1
    outer loop
      vertex 27.5252 32.872 0
      vertex 31.8522 36.1396 0
      vertex 30.8559 34.5305 0
    endloop
  endfacet
  facet normal 0 0 -1
    outer loop
      vertex -7.95 0 0
      vertex -3.57083 -8.95 0
      vertex -3.56106 -8.98646 0
    endloop
  endfacet
  facet normal 0 0 -1
    outer loop
      vertex 25.6406 33.0466 0
      vertex 31.8522 36.1396 0
      vertex 27.5252 32.872 0
    endloop
  endfacet
  facet normal 0 0 -1
    outer loop
      vertex 23.9464 33.8902 0
      vertex 32.2 38 0
      vertex 25.6406 33.0466 0
    endloop
  endfacet
  facet normal 0 0 -1
    outer loop
      vertex 17.05 34 0
      vertex 23.9464 42.1098 0
      vertex 25.6406 42.9534 0
    endloop
  endfacet
  facet normal 0 0 -1
    outer loop
      vertex 17.05 34 0
      vertex 23.8463 42 0
      vertex 23.9464 42.1098 0
    endloop
  endfacet
  facet normal 0 0 -1
    outer loop
      vertex 11.75 42 0
      vertex 23.8463 42 0
      vertex 17.05 34 0
    endloop
  endfacet
  facet normal 0 0 -1
    outer loop
      vertex 11.75 42 0
      vertex 17.05 34 0
      vertex 11.75 25 0
    endloop
  endfacet
  facet normal 0 0 -1
    outer loop
      vertex -5.67158 -9.89642 0
      vertex -3.89437 -13.1804 0
      vertex -5.05697 -11.6867 0
    endloop
  endfacet
  facet normal 0 0 -1
    outer loop
      vertex 11.75 25 0
      vertex 17.05 25 0
      vertex 13 0 0
    endloop
  endfacet
  facet normal 0 0 -1
    outer loop
      vertex 10 18.99 0
      vertex 11.75 25 0
      vertex 10 4.01 0
    endloop
  endfacet
  facet normal 0 0 -1
    outer loop
      vertex 8.99 3 0
      vertex 13 0 0
      vertex 7.95 0 0
    endloop
  endfacet
  facet normal 0 0 -1
    outer loop
      vertex 3.09243 -7.16458 0
      vertex 5.75 -8.95 0
      vertex 5.43845 -10.817 0
    endloop
  endfacet
  facet normal 0 0 -1
    outer loop
      vertex 3.57083 -8.95 0
      vertex 5.43845 -10.817 0
      vertex 4.53756 -12.4817 0
    endloop
  endfacet
  facet normal 0 0 -1
    outer loop
      vertex 3.09243 -10.7354 0
      vertex 4.53756 -12.4817 0
      vertex 3.14495 -13.7637 0
    endloop
  endfacet
  facet normal 0 0 -1
    outer loop
      vertex 28.8 38 0
      vertex 31.8522 39.8604 0
      vertex 27.925 36.4845 0
    endloop
  endfacet
  facet normal 0 0 -1
    outer loop
      vertex -1.78542 -12.0424 0
      vertex 1.41154 -14.5241 0
      vertex -0.474831 -14.6804 0
    endloop
  endfacet
  facet normal 0 0 -1
    outer loop
      vertex -3.09243 -10.7354 0
      vertex -0.474831 -14.6804 0
      vertex -2.30975 -14.2157 0
    endloop
  endfacet
  facet normal 0 0 -1
    outer loop
      vertex -5.67158 -9.89642 0
      vertex -2.30975 -14.2157 0
      vertex -3.89437 -13.1804 0
    endloop
  endfacet
  facet normal 0 0 -1
    outer loop
      vertex -5.67158 -8.95 0
      vertex -2.30975 -14.2157 0
      vertex -5.67158 -9.89642 0
    endloop
  endfacet
  facet normal 0 0 -1
    outer loop
      vertex -3.09243 -7.16458 0
      vertex -9.30902 3.04894 0
      vertex -9.10453 3.00548 0
    endloop
  endfacet
  facet normal 0 0 -1
    outer loop
      vertex 8.99 3 0
      vertex -1.78542 -5.85757 0
      vertex -8.99 3 0
    endloop
  endfacet
  facet normal 0 0 -1
    outer loop
      vertex -1.78542 -12.0424 0
      vertex -0.474831 -14.6804 0
      vertex -3.09243 -10.7354 0
    endloop
  endfacet
  facet normal 0 0 -1
    outer loop
      vertex 3.09243 -10.7354 0
      vertex 3.14495 -13.7637 0
      vertex 1.78542 -12.0424 0
    endloop
  endfacet
  facet normal 0 0 -1
    outer loop
      vertex 9.74314 3.33087 0
      vertex 13 0 0
      vertex 9.58778 3.19098 0
    endloop
  endfacet
  facet normal 0 0 -1
    outer loop
      vertex -26.175 36.4845 0
      vertex -11.75 42 0
      vertex -17.05 34 0
    endloop
  endfacet
  facet normal 0 0 -1
    outer loop
      vertex -27.5252 32.872 0
      vertex -31.8522 36.1396 0
      vertex -25.6406 33.0466 0
    endloop
  endfacet
  facet normal 0 0 -1
    outer loop
      vertex -31.8522 36.1396 0
      vertex -17.05 34 0
      vertex -23.8463 34 0
    endloop
  endfacet
  facet normal 0 0 -1
    outer loop
      vertex -31.8522 36.1396 0
      vertex -23.8463 34 0
      vertex -23.9464 33.8902 0
    endloop
  endfacet
  facet normal 0 0 -1
    outer loop
      vertex -10 4.01 0
      vertex -17.05 25 0
      vertex -10 18.99 0
    endloop
  endfacet
  facet normal 0 0 -1
    outer loop
      vertex -31.8522 36.1396 0
      vertex -23.9464 33.8902 0
      vertex -25.6406 33.0466 0
    endloop
  endfacet
  facet normal 0 0 -1
    outer loop
      vertex -3.57083 -8.95 0
      vertex -7.95 0 0
      vertex -3.1022 -7.20104 0
    endloop
  endfacet
  facet normal 0 0 -1
    outer loop
      vertex -27.925 39.5155 0
      vertex -23.9464 42.1098 0
      vertex -23.8463 42 0
    endloop
  endfacet
  facet normal 0 0 -1
    outer loop
      vertex -28.8 38 0
      vertex -31.8522 36.1396 0
      vertex -27.925 39.5155 0
    endloop
  endfacet
  facet normal 0 0 -1
    outer loop
      vertex -27.925 36.4845 0
      vertex -31.8522 36.1396 0
      vertex -28.8 38 0
    endloop
  endfacet
  facet normal 0 0 -1
    outer loop
      vertex -26.175 39.5155 0
      vertex -11.75 42 0
      vertex -25.3 38 0
    endloop
  endfacet
  facet normal 0 0 -1
    outer loop
      vertex -31.8522 36.1396 0
      vertex -27.925 36.4845 0
      vertex -17.05 34 0
    endloop
  endfacet
  facet normal 0 0 -1
    outer loop
      vertex -27.925 36.4845 0
      vertex -26.175 36.4845 0
      vertex -17.05 34 0
    endloop
  endfacet
  facet normal 0 0 -1
    outer loop
      vertex -25.3 38 0
      vertex -11.75 42 0
      vertex -26.175 36.4845 0
    endloop
  endfacet
  facet normal 0 0 -1
    outer loop
      vertex -27.925 39.5155 0
      vertex -23.8463 42 0
      vertex -26.175 39.5155 0
    endloop
  endfacet
  facet normal 0 0 -1
    outer loop
      vertex -31.8522 36.1396 0
      vertex -25.6406 42.9534 0
      vertex -27.925 39.5155 0
    endloop
  endfacet
  facet normal 0 0 -1
    outer loop
      vertex -17.05 34 0
      vertex -11.75 25 0
      vertex -17.05 25 0
    endloop
  endfacet
  facet normal 0 0 -1
    outer loop
      vertex 8.99 3 0
      vertex 1.78542 -5.85757 0
      vertex 1.74896 -5.8478 0
    endloop
  endfacet
  facet normal 0 0 -1
    outer loop
      vertex -9.66913 3.25686 0
      vertex -7.95 0 0
      vertex -9.80902 3.41222 0
    endloop
  endfacet
  facet normal 0 0 -1
    outer loop
      vertex 7.95 0 0
      vertex 7.95 -8.95 0
      vertex 5.75 -8.95 0
    endloop
  endfacet
  facet normal 0 0 -1
    outer loop
      vertex 8.99 3 0
      vertex 7.95 0 0
      vertex 3.09243 -7.16458 0
    endloop
  endfacet
  facet normal 0 0 -1
    outer loop
      vertex -9.91355 3.59326 0
      vertex -9.80902 3.41222 0
      vertex -7.95 0 0
    endloop
  endfacet
  facet normal 0 0 -1
    outer loop
      vertex -9.5 3.13398 0
      vertex -7.95 0 0
      vertex -9.66913 3.25686 0
    endloop
  endfacet
  facet normal 0 0 -1
    outer loop
      vertex -3.09243 -7.16458 0
      vertex -8.99 3 0
      vertex -1.78542 -5.85757 0
    endloop
  endfacet
  facet normal 0 0 -1
    outer loop
      vertex 8.99 3 0
      vertex 3.09243 -7.16458 0
      vertex 1.78542 -5.85757 0
    endloop
  endfacet
  facet normal 0 0 -1
    outer loop
      vertex -8.99 3.00548 0
      vertex -8.99 3 0
      vertex -9.10453 3.00548 0
    endloop
  endfacet
  facet normal 0 0 -1
    outer loop
      vertex 8.99 3.00105 0
      vertex 13 0 0
      vertex 8.99 3 0
    endloop
  endfacet
  facet normal 0 0 -1
    outer loop
      vertex 9 3 0
      vertex 13 0 0
      vertex 8.99 3.00105 0
    endloop
  endfacet
  facet normal 0 0 -1
    outer loop
      vertex 9.20791 3.02185 0
      vertex 13 0 0
      vertex 9 3 0
    endloop
  endfacet
  facet normal 0 0 -1
    outer loop
      vertex 9.58778 3.19098 0
      vertex 13 0 0
      vertex 9.40674 3.08645 0
    endloop
  endfacet
  facet normal 0 0 -1
    outer loop
      vertex 9.86602 3.5 0
      vertex 13 0 0
      vertex 9.74314 3.33087 0
    endloop
  endfacet
  facet normal 0 0 -1
    outer loop
      vertex 9.95106 3.69098 0
      vertex 13 0 0
      vertex 9.86602 3.5 0
    endloop
  endfacet
  facet normal 0 0 -1
    outer loop
      vertex -2.35514e-16 23 0
      vertex 9.10453 19.9945 0
      vertex 8.99 20 0
    endloop
  endfacet
  facet normal 0 0 -1
    outer loop
      vertex 9.99452 3.89547 0
      vertex 13 0 0
      vertex 9.95106 3.69098 0
    endloop
  endfacet
  facet normal 0 0 -1
    outer loop
      vertex 11.75 25 0
      vertex 13 0 0
      vertex 9.99452 3.89547 0
    endloop
  endfacet
  facet normal 0 0 -1
    outer loop
      vertex 10 4.01 0
      vertex 9.99452 3.89547 0
      vertex 9.99452 4.01 0
    endloop
  endfacet
  facet normal 0 0 -1
    outer loop
      vertex 11.75 25 0
      vertex 9.99452 3.89547 0
      vertex 10 4.01 0
    endloop
  endfacet
  facet normal 0 0 -1
    outer loop
      vertex 10 19 0
      vertex 10 18.99 0
      vertex 9.99895 18.99 0
    endloop
  endfacet
  facet normal 0 0 -1
    outer loop
      vertex 11.75 25 0
      vertex 10 18.99 0
      vertex 10 19 0
    endloop
  endfacet
  facet normal 0 0 -1
    outer loop
      vertex -2.35514e-16 23 0
      vertex 8.99 20 0
      vertex 3 20 0
    endloop
  endfacet
  facet normal 0 0 -1
    outer loop
      vertex 11.75 25 0
      vertex 10 19 0
      vertex 9.97815 19.2079 0
    endloop
  endfacet
  facet normal 0 0 -1
    outer loop
      vertex 11.75 25 0
      vertex 9.97815 19.2079 0
      vertex 9.91354 19.4067 0
    endloop
  endfacet
  facet normal 0 0 -1
    outer loop
      vertex 11.75 25 0
      vertex 9.91354 19.4067 0
      vertex 9.80902 19.5878 0
    endloop
  endfacet
  facet normal 0 0 -1
    outer loop
      vertex 11.75 25 0
      vertex 9.80902 19.5878 0
      vertex 9.66913 19.7431 0
    endloop
  endfacet
  facet normal 0 0 -1
    outer loop
      vertex 11.75 25 0
      vertex 9.66913 19.7431 0
      vertex 9.5 19.866 0
    endloop
  endfacet
  facet normal 0 0 -1
    outer loop
      vertex 11.75 25 0
      vertex 9.5 19.866 0
      vertex 9.30902 19.9511 0
    endloop
  endfacet
  facet normal 0 0 -1
    outer loop
      vertex -3 20 0
      vertex -11.75 25 0
      vertex -2.35514e-16 23 0
    endloop
  endfacet
  facet normal 0 0 -1
    outer loop
      vertex 9.10453 19.9945 0
      vertex 8.99 19.9945 0
      vertex 8.99 20 0
    endloop
  endfacet
  facet normal 0 0 -1
    outer loop
      vertex -2.35514e-16 23 0
      vertex 9.30902 19.9511 0
      vertex 9.10453 19.9945 0
    endloop
  endfacet
  facet normal 0 0 -1
    outer loop
      vertex 11.75 25 0
      vertex 9.30902 19.9511 0
      vertex -2.35514e-16 23 0
    endloop
  endfacet
  facet normal 0 0 -1
    outer loop
      vertex 11.75 25 0
      vertex -2.35514e-16 23 0
      vertex -11.75 25 0
    endloop
  endfacet
  facet normal 0 0 -1
    outer loop
      vertex -8.99 20 0
      vertex -11.75 25 0
      vertex -3 20 0
    endloop
  endfacet
  facet normal 0 0 -1
    outer loop
      vertex -9.99452 19.1045 0
      vertex -17.05 25 0
      vertex -9.95106 19.309 0
    endloop
  endfacet
  facet normal 0 0 -1
    outer loop
      vertex -11.75 25 0
      vertex -8.99 20 0
      vertex -17.05 25 0
    endloop
  endfacet
  facet normal 0 0 -1
    outer loop
      vertex -8.99 20 0
      vertex -8.99 19.9989 0
      vertex -17.05 25 0
    endloop
  endfacet
  facet normal 0 0 -1
    outer loop
      vertex -8.99 19.9989 0
      vertex -9 20 0
      vertex -17.05 25 0
    endloop
  endfacet
  facet normal 0 0 -1
    outer loop
      vertex -9 20 0
      vertex -9.20791 19.9781 0
      vertex -17.05 25 0
    endloop
  endfacet
  facet normal 0 0 -1
    outer loop
      vertex -9.20791 19.9781 0
      vertex -9.40674 19.9135 0
      vertex -17.05 25 0
    endloop
  endfacet
  facet normal 0 0 -1
    outer loop
      vertex -9.40674 19.9135 0
      vertex -9.58779 19.809 0
      vertex -17.05 25 0
    endloop
  endfacet
  facet normal 0 0 -1
    outer loop
      vertex -9.58779 19.809 0
      vertex -9.74315 19.6691 0
      vertex -17.05 25 0
    endloop
  endfacet
  facet normal 0 0 -1
    outer loop
      vertex -9.74315 19.6691 0
      vertex -9.86602 19.5 0
      vertex -17.05 25 0
    endloop
  endfacet
  facet normal 0 0 -1
    outer loop
      vertex -9.86602 19.5 0
      vertex -9.95106 19.309 0
      vertex -17.05 25 0
    endloop
  endfacet
  facet normal 0 0 -1
    outer loop
      vertex -17.05 25 0
      vertex -9.99452 19.1045 0
      vertex -10 18.99 0
    endloop
  endfacet
  facet normal 0 0 -1
    outer loop
      vertex -9.99452 19.1045 0
      vertex -9.99452 18.99 0
      vertex -10 18.99 0
    endloop
  endfacet
  facet normal 0 0 -1
    outer loop
      vertex 1.78542 -12.0424 0
      vertex 3.14495 -13.7637 0
      vertex 1.41154 -14.5241 0
    endloop
  endfacet
  facet normal 0 0 -1
    outer loop
      vertex -1.74896 -12.0522 0
      vertex 1.41154 -14.5241 0
      vertex -1.78542 -12.0424 0
    endloop
  endfacet
  facet normal 0 0 -1
    outer loop
      vertex 0 -12.5208 0
      vertex 1.41154 -14.5241 0
      vertex -1.74896 -12.0522 0
    endloop
  endfacet
  facet normal 0 0 -1
    outer loop
      vertex 1.78542 -12.0424 0
      vertex 1.41154 -14.5241 0
      vertex 0.0364583 -12.5111 0
    endloop
  endfacet
  facet normal 0 0 -1
    outer loop
      vertex 0.0364583 -12.5111 0
      vertex 1.41154 -14.5241 0
      vertex 0 -12.5208 0
    endloop
  endfacet
  facet normal 0 0 -1
    outer loop
      vertex 9.40674 3.08645 0
      vertex 13 0 0
      vertex 9.20791 3.02185 0
    endloop
  endfacet
  facet normal 0 0 -1
    outer loop
      vertex 27.925 36.4845 0
      vertex 23.8463 34 0
      vertex 26.175 36.4845 0
    endloop
  endfacet
  facet normal 0 0 -1
    outer loop
      vertex 3.1022 -10.699 0
      vertex 4.53756 -12.4817 0
      vertex 3.09243 -10.7354 0
    endloop
  endfacet
  facet normal 0 0 -1
    outer loop
      vertex 3.57083 -8.95 0
      vertex 4.53756 -12.4817 0
      vertex 3.1022 -10.699 0
    endloop
  endfacet
  facet normal 0 0 -1
    outer loop
      vertex 3.56106 -8.91354 0
      vertex 5.43845 -10.817 0
      vertex 3.57083 -8.95 0
    endloop
  endfacet
  facet normal 0 0 -1
    outer loop
      vertex 3.09243 -7.16458 0
      vertex 5.43845 -10.817 0
      vertex 3.56106 -8.91354 0
    endloop
  endfacet
  facet normal 0 0 -1
    outer loop
      vertex -3.09243 -7.16458 0
      vertex -7.95 0 0
      vertex -9.5 3.13398 0
    endloop
  endfacet
  facet normal 0 0 -1
    outer loop
      vertex -3.09243 -7.16458 0
      vertex -9.5 3.13398 0
      vertex -9.30902 3.04894 0
    endloop
  endfacet
  facet normal 0 0 -1
    outer loop
      vertex 26.175 39.5155 0
      vertex 30.8559 41.4695 0
      vertex 27.925 39.5155 0
    endloop
  endfacet
  facet normal 0 0 -1
    outer loop
      vertex -7.95 0 0
      vertex -3.09243 -7.16458 0
      vertex -3.1022 -7.20104 0
    endloop
  endfacet
  facet normal 0 0 -1
    outer loop
      vertex 27.925 36.4845 0
      vertex 23.9464 33.8902 0
      vertex 23.8463 34 0
    endloop
  endfacet
  facet normal 0 0 -1
    outer loop
      vertex -7.95 0 0
      vertex -3.09243 -10.7354 0
      vertex -2.30975 -14.2157 0
    endloop
  endfacet
  facet normal 0 0 -1
    outer loop
      vertex 27.925 39.5155 0
      vertex 30.8559 41.4695 0
      vertex 28.8 38 0
    endloop
  endfacet
  facet normal 0 0 -1
    outer loop
      vertex 23.9464 33.8902 0
      vertex 27.925 36.4845 0
      vertex 32.2 38 0
    endloop
  endfacet
  facet normal 0 0 -1
    outer loop
      vertex -7.95 0 0
      vertex -2.30975 -14.2157 0
      vertex -5.67158 -8.95 0
    endloop
  endfacet
  facet normal 0 0 -1
    outer loop
      vertex -7.95 0 0
      vertex -5.67158 -8.95 0
      vertex -7.95 -8.95 0
    endloop
  endfacet
  facet normal 0 0 -1
    outer loop
      vertex 27.5252 32.872 0
      vertex 30.8559 34.5305 0
      vertex 29.3456 33.3899 0
    endloop
  endfacet
  facet normal 0 0 -1
    outer loop
      vertex 17.05 34 0
      vertex 25.6406 42.9534 0
      vertex 27.5252 43.128 0
    endloop
  endfacet
  facet normal 0 0 -1
    outer loop
      vertex 17.05 34 0
      vertex 27.5252 43.128 0
      vertex 26.175 39.5155 0
    endloop
  endfacet
  facet normal 0 0 -1
    outer loop
      vertex 17.05 34 0
      vertex 26.175 39.5155 0
      vertex 25.3 38 0
    endloop
  endfacet
  facet normal 0 0 -1
    outer loop
      vertex 26.175 39.5155 0
      vertex 29.3456 42.6101 0
      vertex 30.8559 41.4695 0
    endloop
  endfacet
  facet normal 0 0 -1
    outer loop
      vertex 17.05 34 0
      vertex 25.3 38 0
      vertex 26.175 36.4845 0
    endloop
  endfacet
  facet normal 0 0 -1
    outer loop
      vertex 17.05 34 0
      vertex 26.175 36.4845 0
      vertex 23.8463 34 0
    endloop
  endfacet
  facet normal 0 0 -1
    outer loop
      vertex -7.95 0 0
      vertex -3.56106 -8.98646 0
      vertex -3.09243 -10.7354 0
    endloop
  endfacet
  facet normal 0 0 -1
    outer loop
      vertex 8.99 3 0
      vertex -0.0364583 -5.38894 0
      vertex -1.78542 -5.85757 0
    endloop
  endfacet
  facet normal 0 0 -1
    outer loop
      vertex 8.99 3 0
      vertex 0 -5.37917 0
      vertex -0.0364583 -5.38894 0
    endloop
  endfacet
  facet normal 0 0 -1
    outer loop
      vertex 8.99 3 0
      vertex 1.74896 -5.8478 0
      vertex 0 -5.37917 0
    endloop
  endfacet
  facet normal 0 0 -1
    outer loop
      vertex -3.09243 -7.16458 0
      vertex -9.10453 3.00548 0
      vertex -8.99 3 0
    endloop
  endfacet
  facet normal 0 0 -1
    outer loop
      vertex 7.95 0 0
      vertex 5.75 -8.95 0
      vertex 3.09243 -7.16458 0
    endloop
  endfacet
  facet normal 0 0 -1
    outer loop
      vertex -10 4 0
      vertex -10 4.01 0
      vertex -9.99895 4.01 0
    endloop
  endfacet
  facet normal 0 0 -1
    outer loop
      vertex -17.05 25 0
      vertex -10 4.01 0
      vertex -10 4 0
    endloop
  endfacet
  facet normal 0 0 -1
    outer loop
      vertex -17.05 25 0
      vertex -10 4 0
      vertex -9.97815 3.79209 0
    endloop
  endfacet
  facet normal 0 0 -1
    outer loop
      vertex -17.05 25 0
      vertex -9.97815 3.79209 0
      vertex -9.91355 3.59326 0
    endloop
  endfacet
  facet normal 0 0 -1
    outer loop
      vertex -9.91355 3.59326 0
      vertex -7.95 0 0
      vertex -13 0 0
    endloop
  endfacet
  facet normal 0 0 -1
    outer loop
      vertex -17.05 25 0
      vertex -9.91355 3.59326 0
      vertex -13 0 0
    endloop
  endfacet
  facet normal 0 0 -1
    outer loop
      vertex -30.8559 34.5305 0
      vertex -31.8522 36.1396 0
      vertex -29.3456 33.3899 0
    endloop
  endfacet
  facet normal 0 0 -1
    outer loop
      vertex -29.3456 33.3899 0
      vertex -31.8522 36.1396 0
      vertex -27.5252 32.872 0
    endloop
  endfacet
  facet normal -0.982973 0.183749 0
    outer loop
      vertex -31.8522 39.8604 2
      vertex -31.8522 39.8604 0
      vertex -32.2 38 2
    endloop
  endfacet
  facet normal -0.982973 0.183749 0
    outer loop
      vertex -32.2 38 2
      vertex -31.8522 39.8604 0
      vertex -32.2 38 0
    endloop
  endfacet
  facet normal -0.982973 -0.183749 0
    outer loop
      vertex -31.8522 36.1396 2
      vertex -32.2 38 2
      vertex -31.8522 36.1396 0
    endloop
  endfacet
  facet normal -0.982973 -0.183749 0
    outer loop
      vertex -31.8522 36.1396 0
      vertex -32.2 38 2
      vertex -32.2 38 0
    endloop
  endfacet
  facet normal -0.850217 -0.526432 0
    outer loop
      vertex -30.8559 34.5305 2
      vertex -31.8522 36.1396 2
      vertex -30.8559 34.5305 0
    endloop
  endfacet
  facet normal -0.850217 -0.526432 0
    outer loop
      vertex -30.8559 34.5305 0
      vertex -31.8522 36.1396 2
      vertex -31.8522 36.1396 0
    endloop
  endfacet
  facet normal -0.602635 -0.798017 0
    outer loop
      vertex -29.3456 33.3899 0
      vertex -29.3456 33.3899 2
      vertex -30.8559 34.5305 2
    endloop
  endfacet
  facet normal -0.602635 -0.798017 0
    outer loop
      vertex -30.8559 34.5305 0
      vertex -29.3456 33.3899 0
      vertex -30.8559 34.5305 2
    endloop
  endfacet
  facet normal -0.273663 -0.961826 0
    outer loop
      vertex -27.5252 32.872 0
      vertex -27.5252 32.872 2
      vertex -29.3456 33.3899 2
    endloop
  endfacet
  facet normal -0.273663 -0.961826 0
    outer loop
      vertex -29.3456 33.3899 0
      vertex -27.5252 32.872 0
      vertex -29.3456 33.3899 2
    endloop
  endfacet
  facet normal 0.0922684 -0.995734 0
    outer loop
      vertex -25.6406 33.0466 0
      vertex -25.6406 33.0466 2
      vertex -27.5252 32.872 2
    endloop
  endfacet
  facet normal 0.0922684 -0.995734 0
    outer loop
      vertex -27.5252 32.872 0
      vertex -25.6406 33.0466 0
      vertex -27.5252 32.872 2
    endloop
  endfacet
  facet normal 0.445738 -0.895163 0
    outer loop
      vertex -23.9464 33.8902 0
      vertex -23.9464 33.8902 2
      vertex -25.6406 33.0466 2
    endloop
  endfacet
  facet normal 0.445738 -0.895163 0
    outer loop
      vertex -25.6406 33.0466 0
      vertex -23.9464 33.8902 0
      vertex -25.6406 33.0466 2
    endloop
  endfacet
  facet normal 0.739009 -0.673696 0
    outer loop
      vertex -23.8463 34 0
      vertex -23.8463 34 2
      vertex -23.9464 33.8902 2
    endloop
  endfacet
  facet normal 0.739009 -0.673696 0
    outer loop
      vertex -23.9464 33.8902 0
      vertex -23.8463 34 0
      vertex -23.9464 33.8902 2
    endloop
  endfacet
  facet normal 0 -1 0
    outer loop
      vertex -17.05 34 0
      vertex -17.05 34 2
      vertex -23.8463 34 2
    endloop
  endfacet
  facet normal 0 -1 0
    outer loop
      vertex -23.8463 34 0
      vertex -17.05 34 0
      vertex -23.8463 34 2
    endloop
  endfacet
  facet normal -1 0 0
    outer loop
      vertex -17.05 42 14.5
      vertex -17.05 42 2
      vertex -17.05 25 14.5
    endloop
  endfacet
  facet normal -1 0 0
    outer loop
      vertex -17.05 25 14.5
      vertex -17.05 42 2
      vertex -17.05 34 2
    endloop
  endfacet
  facet normal -1 0 0
    outer loop
      vertex -17.05 25 14.5
      vertex -17.05 34 2
      vertex -17.05 34 0
    endloop
  endfacet
  facet normal -1 0 0
    outer loop
      vertex -17.05 25 14.5
      vertex -17.05 34 0
      vertex -17.05 25 0
    endloop
  endfacet
  facet normal -0.987131 -0.159915 0
    outer loop
      vertex -17.05 25 0
      vertex -13 0 0
      vertex -17.05 25 14.5
    endloop
  endfacet
  facet normal -0.987131 -0.159915 0
    outer loop
      vertex -17.05 25 14.5
      vertex -13 0 0
      vertex -13 0 20
    endloop
  endfacet
  facet normal -0.987131 -0.159915 0
    outer loop
      vertex -17.05 25 14.5
      vertex -13 0 20
      vertex -17.05 25 20
    endloop
  endfacet
  facet normal 0 -1 0
    outer loop
      vertex 13 0 20
      vertex -7.95 0 2
      vertex 7.95 0 2
    endloop
  endfacet
  facet normal 0 -1 0
    outer loop
      vertex -7.95 0 0
      vertex -7.95 0 2
      vertex -13 0 20
    endloop
  endfacet
  facet normal 0 -1 0
    outer loop
      vertex 7.95 0 0
      vertex 13 0 0
      vertex 7.95 0 2
    endloop
  endfacet
  facet normal 0 -1 0
    outer loop
      vertex 13 0 0
      vertex 13 0 20
      vertex 7.95 0 2
    endloop
  endfacet
  facet normal 0 -1 0
    outer loop
      vertex -1.6 0 14
      vertex -13 0 20
      vertex -7.95 0 2
    endloop
  endfacet
  facet normal 0 -1 0
    outer loop
      vertex -13 0 20
      vertex -13 0 0
      vertex -7.95 0 0
    endloop
  endfacet
  facet normal 0 -1 0
    outer loop
      vertex -0.8 0 12.6144
      vertex -1.6 0 14
      vertex -7.95 0 2
    endloop
  endfacet
  facet normal 0 -1 0
    outer loop
      vertex -0.8 0 15.3856
      vertex -13 0 20
      vertex -1.6 0 14
    endloop
  endfacet
  facet normal 0 -1 0
    outer loop
      vertex 13 0 20
      vertex -13 0 20
      vertex -0.8 0 15.3856
    endloop
  endfacet
  facet normal 0 -1 0
    outer loop
      vertex 0.8 0 12.6144
      vertex -0.8 0 12.6144
      vertex -7.95 0 2
    endloop
  endfacet
  facet normal 0 -1 0
    outer loop
      vertex 13 0 20
      vertex -0.8 0 15.3856
      vertex 0.8 0 15.3856
    endloop
  endfacet
  facet normal 0 -1 0
    outer loop
      vertex 13 0 20
      vertex 0.8 0 12.6144
      vertex -7.95 0 2
    endloop
  endfacet
  facet normal 0 -1 0
    outer loop
      vertex 13 0 20
      vertex 1.6 0 14
      vertex 0.8 0 12.6144
    endloop
  endfacet
  facet normal 0 -1 0
    outer loop
      vertex 0.8 0 15.3856
      vertex 1.6 0 14
      vertex 13 0 20
    endloop
  endfacet
  facet normal -1 0 0
    outer loop
      vertex -7.95 -8.95 0
      vertex -7.95 -8.95 2
      vertex -7.95 0 0
    endloop
  endfacet
  facet normal -1 0 0
    outer loop
      vertex -7.95 0 0
      vertex -7.95 -8.95 2
      vertex -7.95 0 2
    endloop
  endfacet
  facet normal 0 -1 0
    outer loop
      vertex -7.95 -8.95 2
      vertex -7.95 -8.95 0
      vertex -5.67158 -8.95 0
    endloop
  endfacet
  facet normal 0 -1 0
    outer loop
      vertex -5.67158 -8.95 2
      vertex -7.95 -8.95 2
      vertex -5.67158 -8.95 0
    endloop
  endfacet
  facet normal -1 0 0
    outer loop
      vertex -5.67158 -9.89642 0
      vertex -5.67158 -9.89642 2
      vertex -5.67158 -8.95 0
    endloop
  endfacet
  facet normal -1 0 0
    outer loop
      vertex -5.67158 -8.95 0
      vertex -5.67158 -9.89642 2
      vertex -5.67158 -8.95 2
    endloop
  endfacet
  facet normal -0.945817 -0.324699 0
    outer loop
      vertex -5.67158 -9.89642 0
      vertex -5.05697 -11.6867 0
      vertex -5.67158 -9.89642 2
    endloop
  endfacet
  facet normal -0.945817 -0.324699 0
    outer loop
      vertex -5.67158 -9.89642 2
      vertex -5.05697 -11.6867 0
      vertex -5.05697 -11.6867 2
    endloop
  endfacet
  facet normal -0.78914 -0.614213 0
    outer loop
      vertex -5.05697 -11.6867 0
      vertex -3.89437 -13.1804 0
      vertex -5.05697 -11.6867 2
    endloop
  endfacet
  facet normal -0.78914 -0.614213 0
    outer loop
      vertex -5.05697 -11.6867 2
      vertex -3.89437 -13.1804 0
      vertex -3.89437 -13.1804 2
    endloop
  endfacet
  facet normal -0.546949 -0.837166 0
    outer loop
      vertex -3.89437 -13.1804 2
      vertex -3.89437 -13.1804 0
      vertex -2.30975 -14.2157 0
    endloop
  endfacet
  facet normal -0.546949 -0.837166 0
    outer loop
      vertex -2.30975 -14.2157 2
      vertex -3.89437 -13.1804 2
      vertex -2.30975 -14.2157 0
    endloop
  endfacet
  facet normal -0.245485 -0.9694 0
    outer loop
      vertex -2.30975 -14.2157 2
      vertex -2.30975 -14.2157 0
      vertex -0.474831 -14.6804 0
    endloop
  endfacet
  facet normal -0.245485 -0.9694 0
    outer loop
      vertex -0.474831 -14.6804 2
      vertex -2.30975 -14.2157 2
      vertex -0.474831 -14.6804 0
    endloop
  endfacet
  facet normal 0.0825792 -0.996585 0
    outer loop
      vertex -0.474831 -14.6804 2
      vertex -0.474831 -14.6804 0
      vertex 1.41154 -14.5241 0
    endloop
  endfacet
  facet normal 0.0825792 -0.996585 0
    outer loop
      vertex 1.41154 -14.5241 2
      vertex -0.474831 -14.6804 2
      vertex 1.41154 -14.5241 0
    endloop
  endfacet
  facet normal 0.401696 -0.915773 0
    outer loop
      vertex 1.41154 -14.5241 2
      vertex 1.41154 -14.5241 0
      vertex 3.14495 -13.7637 0
    endloop
  endfacet
  facet normal 0.401696 -0.915773 0
    outer loop
      vertex 3.14495 -13.7637 2
      vertex 1.41154 -14.5241 2
      vertex 3.14495 -13.7637 0
    endloop
  endfacet
  facet normal 0.677282 -0.735724 0
    outer loop
      vertex 3.14495 -13.7637 2
      vertex 3.14495 -13.7637 0
      vertex 4.53756 -12.4817 0
    endloop
  endfacet
  facet normal 0.677282 -0.735724 0
    outer loop
      vertex 4.53756 -12.4817 2
      vertex 3.14495 -13.7637 2
      vertex 4.53756 -12.4817 0
    endloop
  endfacet
  facet normal 0.879474 -0.475947 0
    outer loop
      vertex 4.53756 -12.4817 2
      vertex 4.53756 -12.4817 0
      vertex 5.43845 -10.817 0
    endloop
  endfacet
  facet normal 0.879474 -0.475947 0
    outer loop
      vertex 5.43845 -10.817 2
      vertex 4.53756 -12.4817 2
      vertex 5.43845 -10.817 0
    endloop
  endfacet
  facet normal 0.986361 -0.164595 0
    outer loop
      vertex 5.43845 -10.817 2
      vertex 5.43845 -10.817 0
      vertex 5.75 -8.95 0
    endloop
  endfacet
  facet normal 0.986361 -0.164595 0
    outer loop
      vertex 5.75 -8.95 2
      vertex 5.43845 -10.817 2
      vertex 5.75 -8.95 0
    endloop
  endfacet
  facet normal 0 -1 0
    outer loop
      vertex 5.75 -8.95 2
      vertex 5.75 -8.95 0
      vertex 7.95 -8.95 0
    endloop
  endfacet
  facet normal 0 -1 0
    outer loop
      vertex 7.95 -8.95 2
      vertex 5.75 -8.95 2
      vertex 7.95 -8.95 0
    endloop
  endfacet
  facet normal 1 0 0
    outer loop
      vertex 7.95 -8.95 2
      vertex 7.95 -8.95 0
      vertex 7.95 0 0
    endloop
  endfacet
  facet normal 1 0 0
    outer loop
      vertex 7.95 0 2
      vertex 7.95 -8.95 2
      vertex 7.95 0 0
    endloop
  endfacet
  facet normal 0.987131 -0.159915 0
    outer loop
      vertex 13 0 20
      vertex 13 0 0
      vertex 17.05 25 0
    endloop
  endfacet
  facet normal 0.987131 -0.159915 0
    outer loop
      vertex 17.05 25 20
      vertex 13 0 20
      vertex 17.05 25 14.5
    endloop
  endfacet
  facet normal 0.987131 -0.159915 0
    outer loop
      vertex 17.05 25 14.5
      vertex 13 0 20
      vertex 17.05 25 0
    endloop
  endfacet
  facet normal 1 0 0
    outer loop
      vertex 17.05 25 14.5
      vertex 17.05 25 0
      vertex 17.05 34 0
    endloop
  endfacet
  facet normal 1 0 0
    outer loop
      vertex 17.05 42 2
      vertex 17.05 25 14.5
      vertex 17.05 34 2
    endloop
  endfacet
  facet normal 1 0 0
    outer loop
      vertex 17.05 34 2
      vertex 17.05 25 14.5
      vertex 17.05 34 0
    endloop
  endfacet
  facet normal 1 0 0
    outer loop
      vertex 17.05 42 14.5
      vertex 17.05 25 14.5
      vertex 17.05 42 2
    endloop
  endfacet
  facet normal 0 -1 0
    outer loop
      vertex 17.05 34 2
      vertex 17.05 34 0
      vertex 23.8463 34 0
    endloop
  endfacet
  facet normal 0 -1 0
    outer loop
      vertex 23.8463 34 2
      vertex 17.05 34 2
      vertex 23.8463 34 0
    endloop
  endfacet
  facet normal -0.739009 -0.673696 0
    outer loop
      vertex 23.8463 34 0
      vertex 23.9464 33.8902 0
      vertex 23.8463 34 2
    endloop
  endfacet
  facet normal -0.739009 -0.673696 0
    outer loop
      vertex 23.8463 34 2
      vertex 23.9464 33.8902 0
      vertex 23.9464 33.8902 2
    endloop
  endfacet
  facet normal -0.445738 -0.895163 0
    outer loop
      vertex 23.9464 33.8902 2
      vertex 23.9464 33.8902 0
      vertex 25.6406 33.0466 0
    endloop
  endfacet
  facet normal -0.445738 -0.895163 0
    outer loop
      vertex 25.6406 33.0466 2
      vertex 23.9464 33.8902 2
      vertex 25.6406 33.0466 0
    endloop
  endfacet
  facet normal -0.0922684 -0.995734 0
    outer loop
      vertex 25.6406 33.0466 2
      vertex 25.6406 33.0466 0
      vertex 27.5252 32.872 0
    endloop
  endfacet
  facet normal -0.0922684 -0.995734 0
    outer loop
      vertex 27.5252 32.872 2
      vertex 25.6406 33.0466 2
      vertex 27.5252 32.872 0
    endloop
  endfacet
  facet normal 0.273663 -0.961826 0
    outer loop
      vertex 27.5252 32.872 2
      vertex 27.5252 32.872 0
      vertex 29.3456 33.3899 0
    endloop
  endfacet
  facet normal 0.273663 -0.961826 0
    outer loop
      vertex 29.3456 33.3899 2
      vertex 27.5252 32.872 2
      vertex 29.3456 33.3899 0
    endloop
  endfacet
  facet normal 0.602635 -0.798017 0
    outer loop
      vertex 29.3456 33.3899 2
      vertex 29.3456 33.3899 0
      vertex 30.8559 34.5305 0
    endloop
  endfacet
  facet normal 0.602635 -0.798017 0
    outer loop
      vertex 30.8559 34.5305 2
      vertex 29.3456 33.3899 2
      vertex 30.8559 34.5305 0
    endloop
  endfacet
  facet normal 0.850217 -0.526432 0
    outer loop
      vertex 30.8559 34.5305 2
      vertex 30.8559 34.5305 0
      vertex 31.8522 36.1396 0
    endloop
  endfacet
  facet normal 0.850217 -0.526432 0
    outer loop
      vertex 31.8522 36.1396 2
      vertex 30.8559 34.5305 2
      vertex 31.8522 36.1396 0
    endloop
  endfacet
  facet normal 0.982973 -0.183749 0
    outer loop
      vertex 31.8522 36.1396 2
      vertex 31.8522 36.1396 0
      vertex 32.2 38 0
    endloop
  endfacet
  facet normal 0.982973 -0.183749 0
    outer loop
      vertex 32.2 38 2
      vertex 31.8522 36.1396 2
      vertex 32.2 38 0
    endloop
  endfacet
  facet normal 0.982973 0.183749 0
    outer loop
      vertex 32.2 38 0
      vertex 31.8522 39.8604 0
      vertex 31.8522 39.8604 2
    endloop
  endfacet
  facet normal 0.982973 0.183749 0
    outer loop
      vertex 32.2 38 2
      vertex 32.2 38 0
      vertex 31.8522 39.8604 2
    endloop
  endfacet
  facet normal 0.850217 0.526432 0
    outer loop
      vertex 31.8522 39.8604 0
      vertex 30.8559 41.4695 0
      vertex 30.8559 41.4695 2
    endloop
  endfacet
  facet normal 0.850217 0.526432 0
    outer loop
      vertex 31.8522 39.8604 2
      vertex 31.8522 39.8604 0
      vertex 30.8559 41.4695 2
    endloop
  endfacet
  facet normal 0.602635 0.798017 0
    outer loop
      vertex 29.3456 42.6101 0
      vertex 29.3456 42.6101 2
      vertex 30.8559 41.4695 0
    endloop
  endfacet
  facet normal 0.602635 0.798017 0
    outer loop
      vertex 30.8559 41.4695 0
      vertex 29.3456 42.6101 2
      vertex 30.8559 41.4695 2
    endloop
  endfacet
  facet normal 0.273663 0.961826 0
    outer loop
      vertex 27.5252 43.128 0
      vertex 27.5252 43.128 2
      vertex 29.3456 42.6101 0
    endloop
  endfacet
  facet normal 0.273663 0.961826 0
    outer loop
      vertex 29.3456 42.6101 0
      vertex 27.5252 43.128 2
      vertex 29.3456 42.6101 2
    endloop
  endfacet
  facet normal -0.0922684 0.995734 0
    outer loop
      vertex 25.6406 42.9534 0
      vertex 25.6406 42.9534 2
      vertex 27.5252 43.128 0
    endloop
  endfacet
  facet normal -0.0922684 0.995734 0
    outer loop
      vertex 27.5252 43.128 0
      vertex 25.6406 42.9534 2
      vertex 27.5252 43.128 2
    endloop
  endfacet
  facet normal -0.445738 0.895163 0
    outer loop
      vertex 23.9464 42.1098 0
      vertex 23.9464 42.1098 2
      vertex 25.6406 42.9534 0
    endloop
  endfacet
  facet normal -0.445738 0.895163 0
    outer loop
      vertex 25.6406 42.9534 0
      vertex 23.9464 42.1098 2
      vertex 25.6406 42.9534 2
    endloop
  endfacet
  facet normal -0.739009 0.673696 0
    outer loop
      vertex 23.8463 42 0
      vertex 23.8463 42 2
      vertex 23.9464 42.1098 0
    endloop
  endfacet
  facet normal -0.739009 0.673696 0
    outer loop
      vertex 23.9464 42.1098 0
      vertex 23.8463 42 2
      vertex 23.9464 42.1098 2
    endloop
  endfacet
  facet normal 0 1 0
    outer loop
      vertex 11.75 42 0
      vertex 17.05 42 2
      vertex 23.8463 42 0
    endloop
  endfacet
  facet normal 0 1 0
    outer loop
      vertex 13.35 42 8.25
      vertex 11.75 42 14.5
      vertex 14.0755 42 9.24861
    endloop
  endfacet
  facet normal 0 1 0
    outer loop
      vertex 11.75 42 0
      vertex 11.75 42 14.5
      vertex 13.35 42 8.25
    endloop
  endfacet
  facet normal 0 1 0
    outer loop
      vertex 11.75 42 0
      vertex 13.35 42 8.25
      vertex 17.05 42 2
    endloop
  endfacet
  facet normal 0 1 0
    outer loop
      vertex 15.2495 42 7.63282
      vertex 17.05 42 2
      vertex 14.0755 42 7.25139
    endloop
  endfacet
  facet normal 0 1 0
    outer loop
      vertex 13.35 42 8.25
      vertex 14.0755 42 7.25139
      vertex 17.05 42 2
    endloop
  endfacet
  facet normal 0 1 0
    outer loop
      vertex 23.8463 42 2
      vertex 23.8463 42 0
      vertex 17.05 42 2
    endloop
  endfacet
  facet normal 0 1 0
    outer loop
      vertex 14.0755 42 9.24861
      vertex 11.75 42 14.5
      vertex 15.2495 42 8.86717
    endloop
  endfacet
  facet normal 0 1 0
    outer loop
      vertex 17.05 42 2
      vertex 15.2495 42 7.63282
      vertex 15.2495 42 8.86717
    endloop
  endfacet
  facet normal 0 1 0
    outer loop
      vertex 15.2495 42 8.86717
      vertex 11.75 42 14.5
      vertex 17.05 42 14.5
    endloop
  endfacet
  facet normal 0 1 0
    outer loop
      vertex 17.05 42 2
      vertex 15.2495 42 8.86717
      vertex 17.05 42 14.5
    endloop
  endfacet
  facet normal -1 0 0
    outer loop
      vertex 11.75 25 0
      vertex 11.75 25 14.5
      vertex 11.75 42 0
    endloop
  endfacet
  facet normal -1 0 0
    outer loop
      vertex 11.75 42 0
      vertex 11.75 25 14.5
      vertex 11.75 42 14.5
    endloop
  endfacet
  facet normal 0 1 0
    outer loop
      vertex -17.05 25 14.5
      vertex -17.05 25 20
      vertex -11.75 25 14.5
    endloop
  endfacet
  facet normal 0 1 0
    outer loop
      vertex -11.75 25 14.5
      vertex -17.05 25 20
      vertex 17.05 25 20
    endloop
  endfacet
  facet normal 0 1 0
    outer loop
      vertex 11.75 25 14.5
      vertex 17.05 25 20
      vertex 17.05 25 14.5
    endloop
  endfacet
  facet normal 0 1 0
    outer loop
      vertex -11.75 25 14.5
      vertex 17.05 25 20
      vertex 11.75 25 14.5
    endloop
  endfacet
  facet normal 0 1 0
    outer loop
      vertex 11.75 25 14.5
      vertex 11.75 25 0
      vertex -11.75 25 14.5
    endloop
  endfacet
  facet normal 0 1 0
    outer loop
      vertex -11.75 25 14.5
      vertex 11.75 25 0
      vertex -11.75 25 0
    endloop
  endfacet
  facet normal 1 0 0
    outer loop
      vertex -11.75 42 0
      vertex -11.75 42 14.5
      vertex -11.75 25 14.5
    endloop
  endfacet
  facet normal 1 0 0
    outer loop
      vertex -11.75 25 0
      vertex -11.75 42 0
      vertex -11.75 25 14.5
    endloop
  endfacet
  facet normal 0 1 0
    outer loop
      vertex -15.2495 42 8.86717
      vertex -17.05 42 14.5
      vertex -11.75 42 14.5
    endloop
  endfacet
  facet normal 0 1 0
    outer loop
      vertex -13.35 42 8.25
      vertex -11.75 42 14.5
      vertex -11.75 42 0
    endloop
  endfacet
  facet normal 0 1 0
    outer loop
      vertex -17.05 42 2
      vertex -11.75 42 0
      vertex -23.8463 42 2
    endloop
  endfacet
  facet normal 0 1 0
    outer loop
      vertex -11.75 42 0
      vertex -23.8463 42 0
      vertex -23.8463 42 2
    endloop
  endfacet
  facet normal 0 1 0
    outer loop
      vertex -17.05 42 2
      vertex -17.05 42 14.5
      vertex -15.2495 42 7.63282
    endloop
  endfacet
  facet normal 0 1 0
    outer loop
      vertex -14.0755 42 9.24861
      vertex -11.75 42 14.5
      vertex -13.35 42 8.25
    endloop
  endfacet
  facet normal 0 1 0
    outer loop
      vertex -17.05 42 2
      vertex -14.0755 42 7.25139
      vertex -11.75 42 0
    endloop
  endfacet
  facet normal 0 1 0
    outer loop
      vertex -14.0755 42 7.25139
      vertex -13.35 42 8.25
      vertex -11.75 42 0
    endloop
  endfacet
  facet normal 0 1 0
    outer loop
      vertex -15.2495 42 7.63282
      vertex -17.05 42 14.5
      vertex -15.2495 42 8.86717
    endloop
  endfacet
  facet normal 0 1 0
    outer loop
      vertex -14.0755 42 7.25139
      vertex -17.05 42 2
      vertex -15.2495 42 7.63282
    endloop
  endfacet
  facet normal 0 1 0
    outer loop
      vertex -15.2495 42 8.86717
      vertex -11.75 42 14.5
      vertex -14.0755 42 9.24861
    endloop
  endfacet
  facet normal 0.739009 0.673696 0
    outer loop
      vertex -23.9464 42.1098 2
      vertex -23.8463 42 2
      vertex -23.8463 42 0
    endloop
  endfacet
  facet normal 0.739009 0.673696 0
    outer loop
      vertex -23.9464 42.1098 0
      vertex -23.9464 42.1098 2
      vertex -23.8463 42 0
    endloop
  endfacet
  facet normal 0.445738 0.895163 0
    outer loop
      vertex -23.9464 42.1098 2
      vertex -23.9464 42.1098 0
      vertex -25.6406 42.9534 2
    endloop
  endfacet
  facet normal 0.445738 0.895163 0
    outer loop
      vertex -25.6406 42.9534 2
      vertex -23.9464 42.1098 0
      vertex -25.6406 42.9534 0
    endloop
  endfacet
  facet normal 0.0922684 0.995734 0
    outer loop
      vertex -25.6406 42.9534 2
      vertex -25.6406 42.9534 0
      vertex -27.5252 43.128 2
    endloop
  endfacet
  facet normal 0.0922684 0.995734 0
    outer loop
      vertex -27.5252 43.128 2
      vertex -25.6406 42.9534 0
      vertex -27.5252 43.128 0
    endloop
  endfacet
  facet normal -0.273663 0.961826 0
    outer loop
      vertex -27.5252 43.128 2
      vertex -27.5252 43.128 0
      vertex -29.3456 42.6101 2
    endloop
  endfacet
  facet normal -0.273663 0.961826 0
    outer loop
      vertex -29.3456 42.6101 2
      vertex -27.5252 43.128 0
      vertex -29.3456 42.6101 0
    endloop
  endfacet
  facet normal -0.602635 0.798017 0
    outer loop
      vertex -29.3456 42.6101 2
      vertex -29.3456 42.6101 0
      vertex -30.8559 41.4695 2
    endloop
  endfacet
  facet normal -0.602635 0.798017 0
    outer loop
      vertex -30.8559 41.4695 2
      vertex -29.3456 42.6101 0
      vertex -30.8559 41.4695 0
    endloop
  endfacet
  facet normal -0.850217 0.526432 0
    outer loop
      vertex -30.8559 41.4695 2
      vertex -30.8559 41.4695 0
      vertex -31.8522 39.8604 2
    endloop
  endfacet
  facet normal -0.850217 0.526432 0
    outer loop
      vertex -31.8522 39.8604 2
      vertex -30.8559 41.4695 0
      vertex -31.8522 39.8604 0
    endloop
  endfacet
  facet normal 0.866025 -0.5 0
    outer loop
      vertex -28.8 38 2
      vertex -28.8 38 0
      vertex -27.925 39.5155 0
    endloop
  endfacet
  facet normal 0.866025 -0.5 0
    outer loop
      vertex -27.925 39.5155 2
      vertex -28.8 38 2
      vertex -27.925 39.5155 0
    endloop
  endfacet
  facet normal 0.866025 0.5 0
    outer loop
      vertex -27.925 36.4845 0
      vertex -28.8 38 0
      vertex -28.8 38 2
    endloop
  endfacet
  facet normal 0.866025 0.5 0
    outer loop
      vertex -27.925 36.4845 2
      vertex -27.925 36.4845 0
      vertex -28.8 38 2
    endloop
  endfacet
  facet normal 0 -1 0
    outer loop
      vertex -27.925 39.5155 2
      vertex -27.925 39.5155 0
      vertex -26.175 39.5155 0
    endloop
  endfacet
  facet normal 0 -1 0
    outer loop
      vertex -26.175 39.5155 2
      vertex -27.925 39.5155 2
      vertex -26.175 39.5155 0
    endloop
  endfacet
  facet normal -0.866025 -0.5 0
    outer loop
      vertex -26.175 39.5155 0
      vertex -25.3 38 0
      vertex -26.175 39.5155 2
    endloop
  endfacet
  facet normal -0.866025 -0.5 0
    outer loop
      vertex -26.175 39.5155 2
      vertex -25.3 38 0
      vertex -25.3 38 2
    endloop
  endfacet
  facet normal -0.866025 0.5 0
    outer loop
      vertex -26.175 36.4845 0
      vertex -26.175 36.4845 2
      vertex -25.3 38 0
    endloop
  endfacet
  facet normal -0.866025 0.5 0
    outer loop
      vertex -25.3 38 0
      vertex -26.175 36.4845 2
      vertex -25.3 38 2
    endloop
  endfacet
  facet normal 0 1 0
    outer loop
      vertex -27.925 36.4845 0
      vertex -27.925 36.4845 2
      vertex -26.175 36.4845 0
    endloop
  endfacet
  facet normal 0 1 0
    outer loop
      vertex -26.175 36.4845 0
      vertex -27.925 36.4845 2
      vertex -26.175 36.4845 2
    endloop
  endfacet
  facet normal -3.44509e-16 -1 0
    outer loop
      vertex -10 18.99 20
      vertex -10 18.99 0
      vertex -9.99452 18.99 0
    endloop
  endfacet
  facet normal -3.44509e-16 -1 0
    outer loop
      vertex -9.99452 18.99 20
      vertex -10 18.99 20
      vertex -9.99452 18.99 0
    endloop
  endfacet
  facet normal 1 -1.22465e-16 0
    outer loop
      vertex -10 18.99 0
      vertex -10 18.99 20
      vertex -10 4.01 20
    endloop
  endfacet
  facet normal 1 -1.22465e-16 0
    outer loop
      vertex -10 4.01 0
      vertex -10 18.99 0
      vertex -10 4.01 20
    endloop
  endfacet
  facet normal 1 -3.44509e-16 0
    outer loop
      vertex -9.99452 19.1045 0
      vertex -9.99452 19.1045 20
      vertex -9.99452 18.99 20
    endloop
  endfacet
  facet normal 1 -3.44509e-16 0
    outer loop
      vertex -9.99452 18.99 0
      vertex -9.99452 19.1045 0
      vertex -9.99452 18.99 20
    endloop
  endfacet
  facet normal 0.978148 -0.207909 0
    outer loop
      vertex -9.95106 19.309 0
      vertex -9.95106 19.309 20
      vertex -9.99452 19.1045 20
    endloop
  endfacet
  facet normal 0.978148 -0.207909 0
    outer loop
      vertex -9.99452 19.1045 0
      vertex -9.95106 19.309 0
      vertex -9.99452 19.1045 20
    endloop
  endfacet
  facet normal 0.913544 -0.40674 0
    outer loop
      vertex -9.86602 19.5 0
      vertex -9.86602 19.5 20
      vertex -9.95106 19.309 20
    endloop
  endfacet
  facet normal 0.913544 -0.40674 0
    outer loop
      vertex -9.95106 19.309 0
      vertex -9.86602 19.5 0
      vertex -9.95106 19.309 20
    endloop
  endfacet
  facet normal 0.809019 -0.587783 0
    outer loop
      vertex -9.74315 19.6691 0
      vertex -9.74315 19.6691 20
      vertex -9.86602 19.5 20
    endloop
  endfacet
  facet normal 0.809019 -0.587783 0
    outer loop
      vertex -9.86602 19.5 0
      vertex -9.74315 19.6691 0
      vertex -9.86602 19.5 20
    endloop
  endfacet
  facet normal 0.669129 -0.743147 0
    outer loop
      vertex -9.58779 19.809 0
      vertex -9.58779 19.809 20
      vertex -9.74315 19.6691 20
    endloop
  endfacet
  facet normal 0.669129 -0.743147 0
    outer loop
      vertex -9.74315 19.6691 0
      vertex -9.58779 19.809 0
      vertex -9.74315 19.6691 20
    endloop
  endfacet
  facet normal 0.5 -0.866026 0
    outer loop
      vertex -9.40674 19.9135 0
      vertex -9.40674 19.9135 20
      vertex -9.58779 19.809 20
    endloop
  endfacet
  facet normal 0.5 -0.866026 0
    outer loop
      vertex -9.58779 19.809 0
      vertex -9.40674 19.9135 0
      vertex -9.58779 19.809 20
    endloop
  endfacet
  facet normal 0.309021 -0.951055 0
    outer loop
      vertex -9.20791 19.9781 0
      vertex -9.20791 19.9781 20
      vertex -9.40674 19.9135 20
    endloop
  endfacet
  facet normal 0.309021 -0.951055 0
    outer loop
      vertex -9.40674 19.9135 0
      vertex -9.20791 19.9781 0
      vertex -9.40674 19.9135 20
    endloop
  endfacet
  facet normal 0.104526 -0.994522 0
    outer loop
      vertex -9 20 0
      vertex -9 20 20
      vertex -9.20791 19.9781 20
    endloop
  endfacet
  facet normal 0.104526 -0.994522 0
    outer loop
      vertex -9.20791 19.9781 0
      vertex -9 20 0
      vertex -9.20791 19.9781 20
    endloop
  endfacet
  facet normal -0.104526 -0.994522 0
    outer loop
      vertex -8.99 19.9989 0
      vertex -8.99 19.9989 20
      vertex -9 20 20
    endloop
  endfacet
  facet normal -0.104526 -0.994522 0
    outer loop
      vertex -9 20 0
      vertex -8.99 19.9989 0
      vertex -9 20 20
    endloop
  endfacet
  facet normal 1 -3.44509e-16 0
    outer loop
      vertex -8.99 19.9989 20
      vertex -8.99 19.9989 0
      vertex -8.99 20 0
    endloop
  endfacet
  facet normal 1 -3.44509e-16 0
    outer loop
      vertex -8.99 20 20
      vertex -8.99 19.9989 20
      vertex -8.99 20 0
    endloop
  endfacet
  facet normal -1.22465e-16 -1 0
    outer loop
      vertex -3 20 0
      vertex -3 20 20
      vertex -8.99 20 20
    endloop
  endfacet
  facet normal -1.22465e-16 -1 0
    outer loop
      vertex -8.99 20 0
      vertex -3 20 0
      vertex -8.99 20 20
    endloop
  endfacet
  facet normal 0.707107 -0.707107 0
    outer loop
      vertex -2.35514e-16 23 0
      vertex -2.35514e-16 23 20
      vertex -3 20 20
    endloop
  endfacet
  facet normal 0.707107 -0.707107 0
    outer loop
      vertex -3 20 0
      vertex -2.35514e-16 23 0
      vertex -3 20 20
    endloop
  endfacet
  facet normal -0.707107 -0.707107 0
    outer loop
      vertex 3 20 20
      vertex -2.35514e-16 23 20
      vertex 3 20 0
    endloop
  endfacet
  facet normal -0.707107 -0.707107 0
    outer loop
      vertex 3 20 0
      vertex -2.35514e-16 23 20
      vertex -2.35514e-16 23 0
    endloop
  endfacet
  facet normal -1.22465e-16 -1 0
    outer loop
      vertex 8.99 20 0
      vertex 8.99 20 20
      vertex 3 20 20
    endloop
  endfacet
  facet normal -1.22465e-16 -1 0
    outer loop
      vertex 3 20 0
      vertex 8.99 20 0
      vertex 3 20 20
    endloop
  endfacet
  facet normal -1 1.22465e-16 0
    outer loop
      vertex 8.99 19.9945 0
      vertex 8.99 19.9945 20
      vertex 8.99 20 0
    endloop
  endfacet
  facet normal -1 1.22465e-16 0
    outer loop
      vertex 8.99 20 0
      vertex 8.99 19.9945 20
      vertex 8.99 20 20
    endloop
  endfacet
  facet normal -1.22465e-16 -1 0
    outer loop
      vertex 9.10453 19.9945 0
      vertex 9.10453 19.9945 20
      vertex 8.99 19.9945 20
    endloop
  endfacet
  facet normal -1.22465e-16 -1 0
    outer loop
      vertex 8.99 19.9945 0
      vertex 9.10453 19.9945 0
      vertex 8.99 19.9945 20
    endloop
  endfacet
  facet normal -0.207909 -0.978148 0
    outer loop
      vertex 9.30902 19.9511 0
      vertex 9.30902 19.9511 20
      vertex 9.10453 19.9945 20
    endloop
  endfacet
  facet normal -0.207909 -0.978148 0
    outer loop
      vertex 9.10453 19.9945 0
      vertex 9.30902 19.9511 0
      vertex 9.10453 19.9945 20
    endloop
  endfacet
  facet normal -0.40674 -0.913544 0
    outer loop
      vertex 9.5 19.866 0
      vertex 9.5 19.866 20
      vertex 9.30902 19.9511 20
    endloop
  endfacet
  facet normal -0.40674 -0.913544 0
    outer loop
      vertex 9.30902 19.9511 0
      vertex 9.5 19.866 0
      vertex 9.30902 19.9511 20
    endloop
  endfacet
  facet normal -0.587783 -0.809019 0
    outer loop
      vertex 9.66913 19.7431 0
      vertex 9.66913 19.7431 20
      vertex 9.5 19.866 20
    endloop
  endfacet
  facet normal -0.587783 -0.809019 0
    outer loop
      vertex 9.5 19.866 0
      vertex 9.66913 19.7431 0
      vertex 9.5 19.866 20
    endloop
  endfacet
  facet normal -0.743147 -0.669129 0
    outer loop
      vertex 9.80902 19.5878 20
      vertex 9.66913 19.7431 20
      vertex 9.80902 19.5878 0
    endloop
  endfacet
  facet normal -0.743147 -0.669129 0
    outer loop
      vertex 9.80902 19.5878 0
      vertex 9.66913 19.7431 20
      vertex 9.66913 19.7431 0
    endloop
  endfacet
  facet normal -0.866026 -0.5 0
    outer loop
      vertex 9.91354 19.4067 20
      vertex 9.80902 19.5878 20
      vertex 9.91354 19.4067 0
    endloop
  endfacet
  facet normal -0.866026 -0.5 0
    outer loop
      vertex 9.91354 19.4067 0
      vertex 9.80902 19.5878 20
      vertex 9.80902 19.5878 0
    endloop
  endfacet
  facet normal -0.951055 -0.309021 0
    outer loop
      vertex 9.97815 19.2079 20
      vertex 9.91354 19.4067 20
      vertex 9.97815 19.2079 0
    endloop
  endfacet
  facet normal -0.951055 -0.309021 0
    outer loop
      vertex 9.97815 19.2079 0
      vertex 9.91354 19.4067 20
      vertex 9.91354 19.4067 0
    endloop
  endfacet
  facet normal -0.994522 -0.104526 0
    outer loop
      vertex 10 19 20
      vertex 9.97815 19.2079 20
      vertex 10 19 0
    endloop
  endfacet
  facet normal -0.994522 -0.104526 0
    outer loop
      vertex 10 19 0
      vertex 9.97815 19.2079 20
      vertex 9.97815 19.2079 0
    endloop
  endfacet
  facet normal -0.994522 0.104526 0
    outer loop
      vertex 10 19 20
      vertex 10 19 0
      vertex 9.99895 18.99 20
    endloop
  endfacet
  facet normal -0.994522 0.104526 0
    outer loop
      vertex 9.99895 18.99 20
      vertex 10 19 0
      vertex 9.99895 18.99 0
    endloop
  endfacet
  facet normal -1.22465e-16 -1 0
    outer loop
      vertex 9.99895 18.99 20
      vertex 9.99895 18.99 0
      vertex 10 18.99 0
    endloop
  endfacet
  facet normal -1.22465e-16 -1 0
    outer loop
      vertex 10 18.99 20
      vertex 9.99895 18.99 20
      vertex 10 18.99 0
    endloop
  endfacet
  facet normal -1 1.22465e-16 0
    outer loop
      vertex 10 18.99 20
      vertex 10 18.99 0
      vertex 10 4.01 20
    endloop
  endfacet
  facet normal -1 1.22465e-16 0
    outer loop
      vertex 10 4.01 20
      vertex 10 18.99 0
      vertex 10 4.01 0
    endloop
  endfacet
  facet normal 3.44509e-16 1 0
    outer loop
      vertex 9.99452 4.01 0
      vertex 9.99452 4.01 20
      vertex 10 4.01 0
    endloop
  endfacet
  facet normal 3.44509e-16 1 0
    outer loop
      vertex 10 4.01 0
      vertex 9.99452 4.01 20
      vertex 10 4.01 20
    endloop
  endfacet
  facet normal -1 3.44509e-16 0
    outer loop
      vertex 9.99452 4.01 20
      vertex 9.99452 4.01 0
      vertex 9.99452 3.89547 20
    endloop
  endfacet
  facet normal -1 3.44509e-16 0
    outer loop
      vertex 9.99452 3.89547 20
      vertex 9.99452 4.01 0
      vertex 9.99452 3.89547 0
    endloop
  endfacet
  facet normal -0.978148 0.207909 0
    outer loop
      vertex 9.99452 3.89547 20
      vertex 9.99452 3.89547 0
      vertex 9.95106 3.69098 20
    endloop
  endfacet
  facet normal -0.978148 0.207909 0
    outer loop
      vertex 9.95106 3.69098 20
      vertex 9.99452 3.89547 0
      vertex 9.95106 3.69098 0
    endloop
  endfacet
  facet normal -0.913544 0.40674 0
    outer loop
      vertex 9.95106 3.69098 20
      vertex 9.95106 3.69098 0
      vertex 9.86602 3.5 20
    endloop
  endfacet
  facet normal -0.913544 0.40674 0
    outer loop
      vertex 9.86602 3.5 20
      vertex 9.95106 3.69098 0
      vertex 9.86602 3.5 0
    endloop
  endfacet
  facet normal -0.809019 0.587783 0
    outer loop
      vertex 9.86602 3.5 20
      vertex 9.86602 3.5 0
      vertex 9.74314 3.33087 20
    endloop
  endfacet
  facet normal -0.809019 0.587783 0
    outer loop
      vertex 9.74314 3.33087 20
      vertex 9.86602 3.5 0
      vertex 9.74314 3.33087 0
    endloop
  endfacet
  facet normal -0.669129 0.743147 0
    outer loop
      vertex 9.74314 3.33087 20
      vertex 9.74314 3.33087 0
      vertex 9.58778 3.19098 20
    endloop
  endfacet
  facet normal -0.669129 0.743147 0
    outer loop
      vertex 9.58778 3.19098 20
      vertex 9.74314 3.33087 0
      vertex 9.58778 3.19098 0
    endloop
  endfacet
  facet normal -0.5 0.866026 0
    outer loop
      vertex 9.58778 3.19098 20
      vertex 9.58778 3.19098 0
      vertex 9.40674 3.08645 20
    endloop
  endfacet
  facet normal -0.5 0.866026 0
    outer loop
      vertex 9.40674 3.08645 20
      vertex 9.58778 3.19098 0
      vertex 9.40674 3.08645 0
    endloop
  endfacet
  facet normal -0.309021 0.951055 0
    outer loop
      vertex 9.40674 3.08645 20
      vertex 9.40674 3.08645 0
      vertex 9.20791 3.02185 20
    endloop
  endfacet
  facet normal -0.309021 0.951055 0
    outer loop
      vertex 9.20791 3.02185 20
      vertex 9.40674 3.08645 0
      vertex 9.20791 3.02185 0
    endloop
  endfacet
  facet normal -0.104526 0.994522 0
    outer loop
      vertex 9.20791 3.02185 20
      vertex 9.20791 3.02185 0
      vertex 9 3 20
    endloop
  endfacet
  facet normal -0.104526 0.994522 0
    outer loop
      vertex 9 3 20
      vertex 9.20791 3.02185 0
      vertex 9 3 0
    endloop
  endfacet
  facet normal 0.104526 0.994522 0
    outer loop
      vertex 9 3 20
      vertex 9 3 0
      vertex 8.99 3.00105 20
    endloop
  endfacet
  facet normal 0.104526 0.994522 0
    outer loop
      vertex 8.99 3.00105 20
      vertex 9 3 0
      vertex 8.99 3.00105 0
    endloop
  endfacet
  facet normal -1 3.44509e-16 0
    outer loop
      vertex 8.99 3 0
      vertex 8.99 3 20
      vertex 8.99 3.00105 0
    endloop
  endfacet
  facet normal -1 3.44509e-16 0
    outer loop
      vertex 8.99 3.00105 0
      vertex 8.99 3 20
      vertex 8.99 3.00105 20
    endloop
  endfacet
  facet normal 1.22465e-16 1 0
    outer loop
      vertex -0.8 3 12.6144
      vertex 8.99 3 0
      vertex -8.99 3 20
    endloop
  endfacet
  facet normal 1.22465e-16 1 0
    outer loop
      vertex -8.99 3 20
      vertex 8.99 3 0
      vertex -8.99 3 0
    endloop
  endfacet
  facet normal 1.22465e-16 1 0
    outer loop
      vertex 0.8 3 12.6144
      vertex 8.99 3 0
      vertex -0.8 3 12.6144
    endloop
  endfacet
  facet normal 1.22465e-16 1 0
    outer loop
      vertex -1.6 3 14
      vertex -0.8 3 12.6144
      vertex -8.99 3 20
    endloop
  endfacet
  facet normal 1.22465e-16 1 0
    outer loop
      vertex 8.99 3 20
      vertex 8.99 3 0
      vertex 0.8 3 12.6144
    endloop
  endfacet
  facet normal 1.22465e-16 1 0
    outer loop
      vertex 8.99 3 20
      vertex 0.8 3 12.6144
      vertex 1.6 3 14
    endloop
  endfacet
  facet normal 1.22465e-16 1 0
    outer loop
      vertex 8.99 3 20
      vertex 0.8 3 15.3856
      vertex -8.99 3 20
    endloop
  endfacet
  facet normal 1.22465e-16 1 0
    outer loop
      vertex 0.8 3 15.3856
      vertex -0.8 3 15.3856
      vertex -8.99 3 20
    endloop
  endfacet
  facet normal 1.22465e-16 1 0
    outer loop
      vertex -0.8 3 15.3856
      vertex -1.6 3 14
      vertex -8.99 3 20
    endloop
  endfacet
  facet normal 1.22465e-16 1 0
    outer loop
      vertex 0.8 3 15.3856
      vertex 8.99 3 20
      vertex 1.6 3 14
    endloop
  endfacet
  facet normal 1 -2.44929e-16 0
    outer loop
      vertex -8.99 3 20
      vertex -8.99 3 0
      vertex -8.99 3.00548 0
    endloop
  endfacet
  facet normal 1 -2.44929e-16 0
    outer loop
      vertex -8.99 3.00548 20
      vertex -8.99 3 20
      vertex -8.99 3.00548 0
    endloop
  endfacet
  facet normal 2.44929e-16 1 0
    outer loop
      vertex -8.99 3.00548 20
      vertex -8.99 3.00548 0
      vertex -9.10453 3.00548 20
    endloop
  endfacet
  facet normal 2.44929e-16 1 0
    outer loop
      vertex -9.10453 3.00548 20
      vertex -8.99 3.00548 0
      vertex -9.10453 3.00548 0
    endloop
  endfacet
  facet normal 0.207909 0.978148 0
    outer loop
      vertex -9.10453 3.00548 20
      vertex -9.10453 3.00548 0
      vertex -9.30902 3.04894 20
    endloop
  endfacet
  facet normal 0.207909 0.978148 0
    outer loop
      vertex -9.30902 3.04894 20
      vertex -9.10453 3.00548 0
      vertex -9.30902 3.04894 0
    endloop
  endfacet
  facet normal 0.40674 0.913544 0
    outer loop
      vertex -9.30902 3.04894 20
      vertex -9.30902 3.04894 0
      vertex -9.5 3.13398 20
    endloop
  endfacet
  facet normal 0.40674 0.913544 0
    outer loop
      vertex -9.5 3.13398 20
      vertex -9.30902 3.04894 0
      vertex -9.5 3.13398 0
    endloop
  endfacet
  facet normal 0.587783 0.809019 0
    outer loop
      vertex -9.5 3.13398 20
      vertex -9.5 3.13398 0
      vertex -9.66913 3.25686 20
    endloop
  endfacet
  facet normal 0.587783 0.809019 0
    outer loop
      vertex -9.66913 3.25686 20
      vertex -9.5 3.13398 0
      vertex -9.66913 3.25686 0
    endloop
  endfacet
  facet normal 0.743147 0.669129 0
    outer loop
      vertex -9.80902 3.41222 20
      vertex -9.66913 3.25686 20
      vertex -9.66913 3.25686 0
    endloop
  endfacet
  facet normal 0.743147 0.669129 0
    outer loop
      vertex -9.80902 3.41222 0
      vertex -9.80902 3.41222 20
      vertex -9.66913 3.25686 0
    endloop
  endfacet
  facet normal 0.866026 0.5 0
    outer loop
      vertex -9.91355 3.59326 20
      vertex -9.80902 3.41222 20
      vertex -9.80902 3.41222 0
    endloop
  endfacet
  facet normal 0.866026 0.5 0
    outer loop
      vertex -9.91355 3.59326 0
      vertex -9.91355 3.59326 20
      vertex -9.80902 3.41222 0
    endloop
  endfacet
  facet normal 0.951055 0.309021 0
    outer loop
      vertex -9.97815 3.79209 20
      vertex -9.91355 3.59326 20
      vertex -9.91355 3.59326 0
    endloop
  endfacet
  facet normal 0.951055 0.309021 0
    outer loop
      vertex -9.97815 3.79209 0
      vertex -9.97815 3.79209 20
      vertex -9.91355 3.59326 0
    endloop
  endfacet
  facet normal 0.994522 0.104526 0
    outer loop
      vertex -10 4 20
      vertex -9.97815 3.79209 20
      vertex -9.97815 3.79209 0
    endloop
  endfacet
  facet normal 0.994522 0.104526 0
    outer loop
      vertex -10 4 0
      vertex -10 4 20
      vertex -9.97815 3.79209 0
    endloop
  endfacet
  facet normal 0.994522 -0.104526 0
    outer loop
      vertex -9.99895 4.01 0
      vertex -9.99895 4.01 20
      vertex -10 4 20
    endloop
  endfacet
  facet normal 0.994522 -0.104526 0
    outer loop
      vertex -10 4 0
      vertex -9.99895 4.01 0
      vertex -10 4 20
    endloop
  endfacet
  facet normal 2.44929e-16 1 0
    outer loop
      vertex -10 4.01 0
      vertex -10 4.01 20
      vertex -9.99895 4.01 0
    endloop
  endfacet
  facet normal 2.44929e-16 1 0
    outer loop
      vertex -9.99895 4.01 0
      vertex -10 4.01 20
      vertex -9.99895 4.01 20
    endloop
  endfacet
  facet normal 0.767296 -0.205596 -0.607443
    outer loop
      vertex -1.9875 -8.95 2
      vertex -3.57083 -8.95 0
      vertex -3.1022 -7.20104 0
    endloop
  endfacet
  facet normal 0.767296 -0.205596 -0.607443
    outer loop
      vertex -1.92637 -8.72187 2
      vertex -1.9875 -8.95 2
      vertex -3.1022 -7.20104 0
    endloop
  endfacet
  facet normal 0.767296 0.205597 -0.607443
    outer loop
      vertex -3.56106 -8.98646 0
      vertex -3.57083 -8.95 0
      vertex -1.9875 -8.95 2
    endloop
  endfacet
  facet normal 0.767296 0.205597 -0.607443
    outer loop
      vertex -1.78235 -9.71562 2
      vertex -3.56106 -8.98646 0
      vertex -1.9875 -8.95 2
    endloop
  endfacet
  facet normal 0.767296 -0.205597 -0.607443
    outer loop
      vertex -1.92637 -8.72187 2
      vertex -3.1022 -7.20104 0
      vertex -3.09243 -7.16458 0
    endloop
  endfacet
  facet normal 0.767296 -0.205597 -0.607443
    outer loop
      vertex -1.72123 -7.95625 2
      vertex -1.92637 -8.72187 2
      vertex -3.09243 -7.16458 0
    endloop
  endfacet
  facet normal 0.5617 -0.5617 -0.607443
    outer loop
      vertex -3.09243 -7.16458 0
      vertex -1.78542 -5.85757 0
      vertex -1.72123 -7.95625 2
    endloop
  endfacet
  facet normal 0.5617 -0.5617 -0.607443
    outer loop
      vertex -1.72123 -7.95625 2
      vertex -1.78542 -5.85757 0
      vertex -0.99375 -7.22877 2
    endloop
  endfacet
  facet normal 0.205596 -0.767296 -0.607443
    outer loop
      vertex -0.99375 -7.22877 2
      vertex -1.78542 -5.85757 0
      vertex -0.0364583 -5.38894 0
    endloop
  endfacet
  facet normal 0.205596 -0.767296 -0.607443
    outer loop
      vertex -0.765625 -7.16765 2
      vertex -0.99375 -7.22877 2
      vertex -0.0364583 -5.38894 0
    endloop
  endfacet
  facet normal 0.205597 -0.767296 -0.607443
    outer loop
      vertex 0 -6.9625 2
      vertex -0.765625 -7.16765 2
      vertex -0.0364583 -5.38894 0
    endloop
  endfacet
  facet normal 0.205597 -0.767296 -0.607443
    outer loop
      vertex 0 -5.37917 0
      vertex 0 -6.9625 2
      vertex -0.0364583 -5.38894 0
    endloop
  endfacet
  facet normal -0.205596 -0.767296 -0.607443
    outer loop
      vertex 0.228125 -7.02363 2
      vertex 0 -6.9625 2
      vertex 0 -5.37917 0
    endloop
  endfacet
  facet normal -0.205596 -0.767296 -0.607443
    outer loop
      vertex 1.74896 -5.8478 0
      vertex 0.228125 -7.02363 2
      vertex 0 -5.37917 0
    endloop
  endfacet
  facet normal -0.205597 -0.767296 -0.607443
    outer loop
      vertex 0.99375 -7.22877 2
      vertex 0.228125 -7.02363 2
      vertex 1.74896 -5.8478 0
    endloop
  endfacet
  facet normal -0.205597 -0.767296 -0.607443
    outer loop
      vertex 1.78542 -5.85757 0
      vertex 0.99375 -7.22877 2
      vertex 1.74896 -5.8478 0
    endloop
  endfacet
  facet normal -0.5617 -0.5617 -0.607443
    outer loop
      vertex 0.99375 -7.22877 2
      vertex 1.78542 -5.85757 0
      vertex 1.72123 -7.95625 2
    endloop
  endfacet
  facet normal -0.5617 -0.5617 -0.607443
    outer loop
      vertex 1.72123 -7.95625 2
      vertex 1.78542 -5.85757 0
      vertex 3.09243 -7.16458 0
    endloop
  endfacet
  facet normal -0.767296 -0.205596 -0.607443
    outer loop
      vertex 1.72123 -7.95625 2
      vertex 3.09243 -7.16458 0
      vertex 1.78235 -8.18437 2
    endloop
  endfacet
  facet normal -0.767296 -0.205596 -0.607443
    outer loop
      vertex 1.78235 -8.18437 2
      vertex 3.09243 -7.16458 0
      vertex 3.56106 -8.91354 0
    endloop
  endfacet
  facet normal -0.767296 -0.205597 -0.607443
    outer loop
      vertex 1.78235 -8.18437 2
      vertex 3.56106 -8.91354 0
      vertex 1.9875 -8.95 2
    endloop
  endfacet
  facet normal -0.767296 -0.205597 -0.607443
    outer loop
      vertex 1.9875 -8.95 2
      vertex 3.56106 -8.91354 0
      vertex 3.57083 -8.95 0
    endloop
  endfacet
  facet normal -0.767296 0.205596 -0.607443
    outer loop
      vertex 1.92637 -9.17812 2
      vertex 1.9875 -8.95 2
      vertex 3.1022 -10.699 0
    endloop
  endfacet
  facet normal -0.767296 0.205596 -0.607443
    outer loop
      vertex 3.1022 -10.699 0
      vertex 1.9875 -8.95 2
      vertex 3.57083 -8.95 0
    endloop
  endfacet
  facet normal -0.767296 0.205597 -0.607443
    outer loop
      vertex 1.72123 -9.94375 2
      vertex 1.92637 -9.17812 2
      vertex 3.09243 -10.7354 0
    endloop
  endfacet
  facet normal -0.767296 0.205597 -0.607443
    outer loop
      vertex 3.09243 -10.7354 0
      vertex 1.92637 -9.17812 2
      vertex 3.1022 -10.699 0
    endloop
  endfacet
  facet normal -0.5617 0.5617 -0.607443
    outer loop
      vertex 0.99375 -10.6712 2
      vertex 1.72123 -9.94375 2
      vertex 1.78542 -12.0424 0
    endloop
  endfacet
  facet normal -0.5617 0.5617 -0.607443
    outer loop
      vertex 1.78542 -12.0424 0
      vertex 1.72123 -9.94375 2
      vertex 3.09243 -10.7354 0
    endloop
  endfacet
  facet normal -0.205596 0.767296 -0.607443
    outer loop
      vertex 0.0364583 -12.5111 0
      vertex 0.765625 -10.7324 2
      vertex 1.78542 -12.0424 0
    endloop
  endfacet
  facet normal -0.205596 0.767296 -0.607443
    outer loop
      vertex 1.78542 -12.0424 0
      vertex 0.765625 -10.7324 2
      vertex 0.99375 -10.6712 2
    endloop
  endfacet
  facet normal -0.205597 0.767296 -0.607443
    outer loop
      vertex 0 -12.5208 0
      vertex 0 -10.9375 2
      vertex 0.0364583 -12.5111 0
    endloop
  endfacet
  facet normal -0.205597 0.767296 -0.607443
    outer loop
      vertex 0.0364583 -12.5111 0
      vertex 0 -10.9375 2
      vertex 0.765625 -10.7324 2
    endloop
  endfacet
  facet normal 0.205596 0.767296 -0.607443
    outer loop
      vertex -1.74896 -12.0522 0
      vertex -0.228125 -10.8764 2
      vertex 0 -12.5208 0
    endloop
  endfacet
  facet normal 0.205596 0.767296 -0.607443
    outer loop
      vertex 0 -12.5208 0
      vertex -0.228125 -10.8764 2
      vertex 0 -10.9375 2
    endloop
  endfacet
  facet normal 0.205597 0.767296 -0.607443
    outer loop
      vertex -1.78542 -12.0424 0
      vertex -0.99375 -10.6712 2
      vertex -1.74896 -12.0522 0
    endloop
  endfacet
  facet normal 0.205597 0.767296 -0.607443
    outer loop
      vertex -1.74896 -12.0522 0
      vertex -0.99375 -10.6712 2
      vertex -0.228125 -10.8764 2
    endloop
  endfacet
  facet normal 0.5617 0.5617 -0.607443
    outer loop
      vertex -3.09243 -10.7354 0
      vertex -1.72123 -9.94375 2
      vertex -1.78542 -12.0424 0
    endloop
  endfacet
  facet normal 0.5617 0.5617 -0.607443
    outer loop
      vertex -1.78542 -12.0424 0
      vertex -1.72123 -9.94375 2
      vertex -0.99375 -10.6712 2
    endloop
  endfacet
  facet normal 0.767296 0.205596 -0.607443
    outer loop
      vertex -3.09243 -10.7354 0
      vertex -3.56106 -8.98646 0
      vertex -1.78235 -9.71562 2
    endloop
  endfacet
  facet normal 0.767296 0.205596 -0.607443
    outer loop
      vertex -1.72123 -9.94375 2
      vertex -3.09243 -10.7354 0
      vertex -1.78235 -9.71562 2
    endloop
  endfacet
  facet normal 0.866025 -0.5 0
    outer loop
      vertex 26.175 39.5155 0
      vertex 26.175 39.5155 2
      vertex 25.3 38 2
    endloop
  endfacet
  facet normal 0.866025 -0.5 0
    outer loop
      vertex 25.3 38 0
      vertex 26.175 39.5155 0
      vertex 25.3 38 2
    endloop
  endfacet
  facet normal 0.866025 0.5 0
    outer loop
      vertex 25.3 38 2
      vertex 26.175 36.4845 2
      vertex 26.175 36.4845 0
    endloop
  endfacet
  facet normal 0.866025 0.5 0
    outer loop
      vertex 25.3 38 0
      vertex 25.3 38 2
      vertex 26.175 36.4845 0
    endloop
  endfacet
  facet normal 0 -1 0
    outer loop
      vertex 27.925 39.5155 0
      vertex 27.925 39.5155 2
      vertex 26.175 39.5155 2
    endloop
  endfacet
  facet normal 0 -1 0
    outer loop
      vertex 26.175 39.5155 0
      vertex 27.925 39.5155 0
      vertex 26.175 39.5155 2
    endloop
  endfacet
  facet normal -0.866025 -0.5 0
    outer loop
      vertex 28.8 38 2
      vertex 27.925 39.5155 2
      vertex 28.8 38 0
    endloop
  endfacet
  facet normal -0.866025 -0.5 0
    outer loop
      vertex 28.8 38 0
      vertex 27.925 39.5155 2
      vertex 27.925 39.5155 0
    endloop
  endfacet
  facet normal -0.866025 0.5 0
    outer loop
      vertex 28.8 38 2
      vertex 28.8 38 0
      vertex 27.925 36.4845 2
    endloop
  endfacet
  facet normal -0.866025 0.5 0
    outer loop
      vertex 27.925 36.4845 2
      vertex 28.8 38 0
      vertex 27.925 36.4845 0
    endloop
  endfacet
  facet normal 0 1 0
    outer loop
      vertex 27.925 36.4845 2
      vertex 27.925 36.4845 0
      vertex 26.175 36.4845 2
    endloop
  endfacet
  facet normal 0 1 0
    outer loop
      vertex 26.175 36.4845 2
      vertex 27.925 36.4845 0
      vertex 26.175 36.4845 0
    endloop
  endfacet
  facet normal 0 0 1
    outer loop
      vertex -31.8522 36.1396 2
      vertex -30.8559 34.5305 2
      vertex -29.3456 33.3899 2
    endloop
  endfacet
  facet normal 0 0 1
    outer loop
      vertex -25.6406 33.0466 2
      vertex -31.8522 36.1396 2
      vertex -27.5252 32.872 2
    endloop
  endfacet
  facet normal 0 0 1
    outer loop
      vertex -27.5252 32.872 2
      vertex -31.8522 36.1396 2
      vertex -29.3456 33.3899 2
    endloop
  endfacet
  facet normal 0 0 1
    outer loop
      vertex -23.9464 33.8902 2
      vertex -31.8522 36.1396 2
      vertex -25.6406 33.0466 2
    endloop
  endfacet
  facet normal 0 0 1
    outer loop
      vertex -23.8463 34 2
      vertex -31.8522 36.1396 2
      vertex -23.9464 33.8902 2
    endloop
  endfacet
  facet normal 0 0 1
    outer loop
      vertex -17.05 34 2
      vertex -31.8522 36.1396 2
      vertex -23.8463 34 2
    endloop
  endfacet
  facet normal 0 0 1
    outer loop
      vertex -26.175 36.4845 2
      vertex -31.8522 36.1396 2
      vertex -17.05 34 2
    endloop
  endfacet
  facet normal 0 0 1
    outer loop
      vertex -27.925 39.5155 2
      vertex -23.8463 42 2
      vertex -23.9464 42.1098 2
    endloop
  endfacet
  facet normal 0 0 1
    outer loop
      vertex -27.925 39.5155 2
      vertex -26.175 39.5155 2
      vertex -23.8463 42 2
    endloop
  endfacet
  facet normal 0 0 1
    outer loop
      vertex -27.5252 43.128 2
      vertex -31.8522 36.1396 2
      vertex -25.6406 42.9534 2
    endloop
  endfacet
  facet normal 0 0 1
    outer loop
      vertex -29.3456 42.6101 2
      vertex -31.8522 36.1396 2
      vertex -27.5252 43.128 2
    endloop
  endfacet
  facet normal 0 0 1
    outer loop
      vertex -30.8559 41.4695 2
      vertex -31.8522 36.1396 2
      vertex -29.3456 42.6101 2
    endloop
  endfacet
  facet normal 0 0 1
    outer loop
      vertex -31.8522 39.8604 2
      vertex -31.8522 36.1396 2
      vertex -30.8559 41.4695 2
    endloop
  endfacet
  facet normal 0 0 1
    outer loop
      vertex -32.2 38 2
      vertex -31.8522 36.1396 2
      vertex -31.8522 39.8604 2
    endloop
  endfacet
  facet normal 0 0 1
    outer loop
      vertex -25.6406 42.9534 2
      vertex -27.925 39.5155 2
      vertex -23.9464 42.1098 2
    endloop
  endfacet
  facet normal 0 0 1
    outer loop
      vertex -25.6406 42.9534 2
      vertex -31.8522 36.1396 2
      vertex -27.925 39.5155 2
    endloop
  endfacet
  facet normal 0 0 1
    outer loop
      vertex -23.8463 42 2
      vertex -26.175 39.5155 2
      vertex -17.05 42 2
    endloop
  endfacet
  facet normal 0 0 1
    outer loop
      vertex -17.05 42 2
      vertex -25.3 38 2
      vertex -17.05 34 2
    endloop
  endfacet
  facet normal 0 0 1
    outer loop
      vertex -26.175 39.5155 2
      vertex -25.3 38 2
      vertex -17.05 42 2
    endloop
  endfacet
  facet normal 0 0 1
    outer loop
      vertex -25.3 38 2
      vertex -26.175 36.4845 2
      vertex -17.05 34 2
    endloop
  endfacet
  facet normal 0 0 1
    outer loop
      vertex -27.925 36.4845 2
      vertex -31.8522 36.1396 2
      vertex -26.175 36.4845 2
    endloop
  endfacet
  facet normal 0 0 1
    outer loop
      vertex -28.8 38 2
      vertex -27.925 39.5155 2
      vertex -31.8522 36.1396 2
    endloop
  endfacet
  facet normal 0 0 1
    outer loop
      vertex -27.925 36.4845 2
      vertex -28.8 38 2
      vertex -31.8522 36.1396 2
    endloop
  endfacet
  facet normal 0 0 1
    outer loop
      vertex -11.75 25 14.5
      vertex -11.75 42 14.5
      vertex -17.05 42 14.5
    endloop
  endfacet
  facet normal 0 0 1
    outer loop
      vertex -17.05 25 14.5
      vertex -11.75 25 14.5
      vertex -17.05 42 14.5
    endloop
  endfacet
  facet normal 0 0 1
    outer loop
      vertex -10 4.01 20
      vertex -17.05 25 20
      vertex -13 0 20
    endloop
  endfacet
  facet normal 0 0 1
    outer loop
      vertex -10 4 20
      vertex -10 4.01 20
      vertex -13 0 20
    endloop
  endfacet
  facet normal 0 0 1
    outer loop
      vertex -10 18.99 20
      vertex -17.05 25 20
      vertex -10 4.01 20
    endloop
  endfacet
  facet normal 0 0 1
    outer loop
      vertex -9.99452 19.1045 20
      vertex -17.05 25 20
      vertex -10 18.99 20
    endloop
  endfacet
  facet normal 0 0 1
    outer loop
      vertex -9.95106 19.309 20
      vertex -17.05 25 20
      vertex -9.99452 19.1045 20
    endloop
  endfacet
  facet normal 0 0 1
    outer loop
      vertex -8.99 20 20
      vertex -2.35514e-16 23 20
      vertex -9 20 20
    endloop
  endfacet
  facet normal 0 0 1
    outer loop
      vertex -9.86602 19.5 20
      vertex -17.05 25 20
      vertex -9.95106 19.309 20
    endloop
  endfacet
  facet normal 0 0 1
    outer loop
      vertex -3 20 20
      vertex -2.35514e-16 23 20
      vertex -8.99 20 20
    endloop
  endfacet
  facet normal 0 0 1
    outer loop
      vertex -9.74315 19.6691 20
      vertex -17.05 25 20
      vertex -9.86602 19.5 20
    endloop
  endfacet
  facet normal 0 0 1
    outer loop
      vertex -9.58779 19.809 20
      vertex -17.05 25 20
      vertex -9.74315 19.6691 20
    endloop
  endfacet
  facet normal 0 0 1
    outer loop
      vertex -9.40674 19.9135 20
      vertex -17.05 25 20
      vertex -9.58779 19.809 20
    endloop
  endfacet
  facet normal 0 0 1
    outer loop
      vertex -9.20791 19.9781 20
      vertex -17.05 25 20
      vertex -9.40674 19.9135 20
    endloop
  endfacet
  facet normal 0 0 1
    outer loop
      vertex -2.35514e-16 23 20
      vertex -17.05 25 20
      vertex -9.20791 19.9781 20
    endloop
  endfacet
  facet normal 0 0 1
    outer loop
      vertex -2.35514e-16 23 20
      vertex 3 20 20
      vertex 17.05 25 20
    endloop
  endfacet
  facet normal 0 0 1
    outer loop
      vertex -8.99 20 20
      vertex -9 20 20
      vertex -8.99 19.9989 20
    endloop
  endfacet
  facet normal 0 0 1
    outer loop
      vertex 8.99 3 20
      vertex -8.99 3 20
      vertex -13 0 20
    endloop
  endfacet
  facet normal 0 0 1
    outer loop
      vertex 9.80902 19.5878 20
      vertex 9.91354 19.4067 20
      vertex 17.05 25 20
    endloop
  endfacet
  facet normal 0 0 1
    outer loop
      vertex 17.05 25 20
      vertex -17.05 25 20
      vertex -2.35514e-16 23 20
    endloop
  endfacet
  facet normal 0 0 1
    outer loop
      vertex 17.05 25 20
      vertex 3 20 20
      vertex 8.99 20 20
    endloop
  endfacet
  facet normal 0 0 1
    outer loop
      vertex 17.05 25 20
      vertex 8.99 20 20
      vertex 8.99 19.9945 20
    endloop
  endfacet
  facet normal 0 0 1
    outer loop
      vertex 17.05 25 20
      vertex 8.99 19.9945 20
      vertex 9.10453 19.9945 20
    endloop
  endfacet
  facet normal 0 0 1
    outer loop
      vertex 17.05 25 20
      vertex 9.10453 19.9945 20
      vertex 9.30902 19.9511 20
    endloop
  endfacet
  facet normal 0 0 1
    outer loop
      vertex 17.05 25 20
      vertex 9.30902 19.9511 20
      vertex 9.5 19.866 20
    endloop
  endfacet
  facet normal 0 0 1
    outer loop
      vertex 17.05 25 20
      vertex 9.5 19.866 20
      vertex 9.66913 19.7431 20
    endloop
  endfacet
  facet normal 0 0 1
    outer loop
      vertex 9.97815 19.2079 20
      vertex 10 19 20
      vertex 17.05 25 20
    endloop
  endfacet
  facet normal 0 0 1
    outer loop
      vertex 17.05 25 20
      vertex 9.66913 19.7431 20
      vertex 9.80902 19.5878 20
    endloop
  endfacet
  facet normal 0 0 1
    outer loop
      vertex 10 18.99 20
      vertex 10 4.01 20
      vertex 13 0 20
    endloop
  endfacet
  facet normal 0 0 1
    outer loop
      vertex 17.05 25 20
      vertex 9.91354 19.4067 20
      vertex 9.97815 19.2079 20
    endloop
  endfacet
  facet normal 0 0 1
    outer loop
      vertex 13 0 20
      vertex 17.05 25 20
      vertex 10 19 20
    endloop
  endfacet
  facet normal 0 0 1
    outer loop
      vertex 10 18.99 20
      vertex 10 19 20
      vertex 9.99895 18.99 20
    endloop
  endfacet
  facet normal 0 0 1
    outer loop
      vertex 9.99452 4.01 20
      vertex 9.99452 3.89547 20
      vertex 10 4.01 20
    endloop
  endfacet
  facet normal 0 0 1
    outer loop
      vertex 13 0 20
      vertex 10 19 20
      vertex 10 18.99 20
    endloop
  endfacet
  facet normal 0 0 1
    outer loop
      vertex -9.10453 3.00548 20
      vertex -9.30902 3.04894 20
      vertex -13 0 20
    endloop
  endfacet
  facet normal 0 0 1
    outer loop
      vertex 13 0 20
      vertex 10 4.01 20
      vertex 9.99452 3.89547 20
    endloop
  endfacet
  facet normal 0 0 1
    outer loop
      vertex -9.30902 3.04894 20
      vertex -9.5 3.13398 20
      vertex -13 0 20
    endloop
  endfacet
  facet normal 0 0 1
    outer loop
      vertex 13 0 20
      vertex 9.99452 3.89547 20
      vertex 9.95106 3.69098 20
    endloop
  endfacet
  facet normal 0 0 1
    outer loop
      vertex 13 0 20
      vertex 9.95106 3.69098 20
      vertex 9.86602 3.5 20
    endloop
  endfacet
  facet normal 0 0 1
    outer loop
      vertex -10 4 20
      vertex -9.99895 4.01 20
      vertex -10 4.01 20
    endloop
  endfacet
  facet normal 0 0 1
    outer loop
      vertex 13 0 20
      vertex 9.86602 3.5 20
      vertex 9.74314 3.33087 20
    endloop
  endfacet
  facet normal 0 0 1
    outer loop
      vertex 13 0 20
      vertex 9.74314 3.33087 20
      vertex 9.58778 3.19098 20
    endloop
  endfacet
  facet normal 0 0 1
    outer loop
      vertex 13 0 20
      vertex 9.58778 3.19098 20
      vertex 9.40674 3.08645 20
    endloop
  endfacet
  facet normal 0 0 1
    outer loop
      vertex 13 0 20
      vertex 9.20791 3.02185 20
      vertex -13 0 20
    endloop
  endfacet
  facet normal 0 0 1
    outer loop
      vertex 13 0 20
      vertex 9.40674 3.08645 20
      vertex 9.20791 3.02185 20
    endloop
  endfacet
  facet normal 0 0 1
    outer loop
      vertex 9.20791 3.02185 20
      vertex 9 3 20
      vertex -13 0 20
    endloop
  endfacet
  facet normal 0 0 1
    outer loop
      vertex 9 3 20
      vertex 8.99 3 20
      vertex -13 0 20
    endloop
  endfacet
  facet normal 0 0 1
    outer loop
      vertex 9 3 20
      vertex 8.99 3.00105 20
      vertex 8.99 3 20
    endloop
  endfacet
  facet normal 0 0 1
    outer loop
      vertex -8.99 3 20
      vertex -8.99 3.00548 20
      vertex -13 0 20
    endloop
  endfacet
  facet normal 0 0 1
    outer loop
      vertex -8.99 3.00548 20
      vertex -9.10453 3.00548 20
      vertex -13 0 20
    endloop
  endfacet
  facet normal 0 0 1
    outer loop
      vertex -9.5 3.13398 20
      vertex -9.66913 3.25686 20
      vertex -13 0 20
    endloop
  endfacet
  facet normal 0 0 1
    outer loop
      vertex -9.66913 3.25686 20
      vertex -9.80902 3.41222 20
      vertex -13 0 20
    endloop
  endfacet
  facet normal 0 0 1
    outer loop
      vertex -9.80902 3.41222 20
      vertex -9.91355 3.59326 20
      vertex -13 0 20
    endloop
  endfacet
  facet normal 0 0 1
    outer loop
      vertex -9.91355 3.59326 20
      vertex -9.97815 3.79209 20
      vertex -13 0 20
    endloop
  endfacet
  facet normal 0 0 1
    outer loop
      vertex -9.97815 3.79209 20
      vertex -10 4 20
      vertex -13 0 20
    endloop
  endfacet
  facet normal 0 0 1
    outer loop
      vertex -9 20 20
      vertex -2.35514e-16 23 20
      vertex -9.20791 19.9781 20
    endloop
  endfacet
  facet normal 0 0 1
    outer loop
      vertex -9.99452 18.99 20
      vertex -9.99452 19.1045 20
      vertex -10 18.99 20
    endloop
  endfacet
  facet normal 0 0 1
    outer loop
      vertex -5.67158 -9.89642 2
      vertex -5.05697 -11.6867 2
      vertex -5.67158 -8.95 2
    endloop
  endfacet
  facet normal 0 0 1
    outer loop
      vertex -7.95 0 2
      vertex -7.95 -8.95 2
      vertex -5.67158 -8.95 2
    endloop
  endfacet
  facet normal 0 0 1
    outer loop
      vertex 5.75 -8.95 2
      vertex 7.95 -8.95 2
      vertex -7.95 0 2
    endloop
  endfacet
  facet normal 0 0 1
    outer loop
      vertex -3.89437 -13.1804 2
      vertex -7.95 0 2
      vertex -5.67158 -8.95 2
    endloop
  endfacet
  facet normal 0 0 1
    outer loop
      vertex -5.05697 -11.6867 2
      vertex -3.89437 -13.1804 2
      vertex -5.67158 -8.95 2
    endloop
  endfacet
  facet normal 0 0 1
    outer loop
      vertex -3.89437 -13.1804 2
      vertex -2.30975 -14.2157 2
      vertex -7.95 0 2
    endloop
  endfacet
  facet normal 0 0 1
    outer loop
      vertex -2.30975 -14.2157 2
      vertex -0.474831 -14.6804 2
      vertex -7.95 0 2
    endloop
  endfacet
  facet normal 0 0 1
    outer loop
      vertex 0.765625 -10.7324 2
      vertex 0 -10.9375 2
      vertex 3.14495 -13.7637 2
    endloop
  endfacet
  facet normal 0 0 1
    outer loop
      vertex 1.72123 -7.95625 2
      vertex 1.78235 -8.18437 2
      vertex 5.43845 -10.817 2
    endloop
  endfacet
  facet normal 0 0 1
    outer loop
      vertex 0.99375 -7.22877 2
      vertex 5.43845 -10.817 2
      vertex -7.95 0 2
    endloop
  endfacet
  facet normal 0 0 1
    outer loop
      vertex 5.43845 -10.817 2
      vertex 5.75 -8.95 2
      vertex -7.95 0 2
    endloop
  endfacet
  facet normal 0 0 1
    outer loop
      vertex 7.95 -8.95 2
      vertex 7.95 0 2
      vertex -7.95 0 2
    endloop
  endfacet
  facet normal 0 0 1
    outer loop
      vertex -1.9875 -8.95 2
      vertex -1.92637 -8.72187 2
      vertex -7.95 0 2
    endloop
  endfacet
  facet normal 0 0 1
    outer loop
      vertex -0.228125 -10.8764 2
      vertex -0.99375 -10.6712 2
      vertex 1.41154 -14.5241 2
    endloop
  endfacet
  facet normal 0 0 1
    outer loop
      vertex -1.92637 -8.72187 2
      vertex -1.72123 -7.95625 2
      vertex -7.95 0 2
    endloop
  endfacet
  facet normal 0 0 1
    outer loop
      vertex 1.72123 -9.94375 2
      vertex 0.99375 -10.6712 2
      vertex 3.14495 -13.7637 2
    endloop
  endfacet
  facet normal 0 0 1
    outer loop
      vertex -0.765625 -7.16765 2
      vertex 0 -6.9625 2
      vertex -7.95 0 2
    endloop
  endfacet
  facet normal 0 0 1
    outer loop
      vertex 0 -6.9625 2
      vertex 0.228125 -7.02363 2
      vertex -7.95 0 2
    endloop
  endfacet
  facet normal 0 0 1
    outer loop
      vertex 0.228125 -7.02363 2
      vertex 0.99375 -7.22877 2
      vertex -7.95 0 2
    endloop
  endfacet
  facet normal 0 0 1
    outer loop
      vertex 1.72123 -7.95625 2
      vertex 5.43845 -10.817 2
      vertex 0.99375 -7.22877 2
    endloop
  endfacet
  facet normal 0 0 1
    outer loop
      vertex 1.92637 -9.17812 2
      vertex 1.72123 -9.94375 2
      vertex 4.53756 -12.4817 2
    endloop
  endfacet
  facet normal 0 0 1
    outer loop
      vertex 4.53756 -12.4817 2
      vertex 5.43845 -10.817 2
      vertex 1.9875 -8.95 2
    endloop
  endfacet
  facet normal 0 0 1
    outer loop
      vertex 4.53756 -12.4817 2
      vertex 1.9875 -8.95 2
      vertex 1.92637 -9.17812 2
    endloop
  endfacet
  facet normal 0 0 1
    outer loop
      vertex 3.14495 -13.7637 2
      vertex 4.53756 -12.4817 2
      vertex 1.72123 -9.94375 2
    endloop
  endfacet
  facet normal 0 0 1
    outer loop
      vertex -0.99375 -7.22877 2
      vertex -0.765625 -7.16765 2
      vertex -7.95 0 2
    endloop
  endfacet
  facet normal 0 0 1
    outer loop
      vertex 1.78235 -8.18437 2
      vertex 1.9875 -8.95 2
      vertex 5.43845 -10.817 2
    endloop
  endfacet
  facet normal 0 0 1
    outer loop
      vertex 3.14495 -13.7637 2
      vertex 0.99375 -10.6712 2
      vertex 0.765625 -10.7324 2
    endloop
  endfacet
  facet normal 0 0 1
    outer loop
      vertex 1.41154 -14.5241 2
      vertex 3.14495 -13.7637 2
      vertex 0 -10.9375 2
    endloop
  endfacet
  facet normal 0 0 1
    outer loop
      vertex -0.99375 -10.6712 2
      vertex -1.72123 -9.94375 2
      vertex 1.41154 -14.5241 2
    endloop
  endfacet
  facet normal 0 0 1
    outer loop
      vertex 1.41154 -14.5241 2
      vertex 0 -10.9375 2
      vertex -0.228125 -10.8764 2
    endloop
  endfacet
  facet normal 0 0 1
    outer loop
      vertex -0.474831 -14.6804 2
      vertex -1.72123 -9.94375 2
      vertex -7.95 0 2
    endloop
  endfacet
  facet normal 0 0 1
    outer loop
      vertex -0.474831 -14.6804 2
      vertex 1.41154 -14.5241 2
      vertex -1.72123 -9.94375 2
    endloop
  endfacet
  facet normal 0 0 1
    outer loop
      vertex -1.72123 -9.94375 2
      vertex -1.78235 -9.71562 2
      vertex -7.95 0 2
    endloop
  endfacet
  facet normal 0 0 1
    outer loop
      vertex -1.78235 -9.71562 2
      vertex -1.9875 -8.95 2
      vertex -7.95 0 2
    endloop
  endfacet
  facet normal 0 0 1
    outer loop
      vertex -1.72123 -7.95625 2
      vertex -0.99375 -7.22877 2
      vertex -7.95 0 2
    endloop
  endfacet
  facet normal 0.866025 -1.11022e-16 0.5
    outer loop
      vertex -0.8 0 12.6144
      vertex -0.8 3 12.6144
      vertex -1.6 3 14
    endloop
  endfacet
  facet normal 0.866025 -1.11022e-16 0.5
    outer loop
      vertex -1.6 0 14
      vertex -0.8 0 12.6144
      vertex -1.6 3 14
    endloop
  endfacet
  facet normal 0.866025 1.11022e-16 -0.5
    outer loop
      vertex -1.6 3 14
      vertex -0.8 3 15.3856
      vertex -0.8 0 15.3856
    endloop
  endfacet
  facet normal 0.866025 1.11022e-16 -0.5
    outer loop
      vertex -1.6 0 14
      vertex -1.6 3 14
      vertex -0.8 0 15.3856
    endloop
  endfacet
  facet normal 0 -2.22045e-16 1
    outer loop
      vertex 0.8 0 12.6144
      vertex 0.8 3 12.6144
      vertex -0.8 3 12.6144
    endloop
  endfacet
  facet normal 0 -2.22045e-16 1
    outer loop
      vertex -0.8 0 12.6144
      vertex 0.8 0 12.6144
      vertex -0.8 3 12.6144
    endloop
  endfacet
  facet normal -0.866025 -1.11022e-16 0.5
    outer loop
      vertex 1.6 3 14
      vertex 0.8 3 12.6144
      vertex 1.6 0 14
    endloop
  endfacet
  facet normal -0.866025 -1.11022e-16 0.5
    outer loop
      vertex 1.6 0 14
      vertex 0.8 3 12.6144
      vertex 0.8 0 12.6144
    endloop
  endfacet
  facet normal -0.866025 1.11022e-16 -0.5
    outer loop
      vertex 1.6 3 14
      vertex 1.6 0 14
      vertex 0.8 3 15.3856
    endloop
  endfacet
  facet normal -0.866025 1.11022e-16 -0.5
    outer loop
      vertex 0.8 3 15.3856
      vertex 1.6 0 14
      vertex 0.8 0 15.3856
    endloop
  endfacet
  facet normal 0 2.22045e-16 -1
    outer loop
      vertex 0.8 3 15.3856
      vertex 0.8 0 15.3856
      vertex -0.8 3 15.3856
    endloop
  endfacet
  facet normal 0 2.22045e-16 -1
    outer loop
      vertex -0.8 3 15.3856
      vertex 0.8 0 15.3856
      vertex -0.8 0 15.3856
    endloop
  endfacet
  facet normal 0 0 1
    outer loop
      vertex 11.75 42 14.5
      vertex 11.75 25 14.5
      vertex 17.05 25 14.5
    endloop
  endfacet
  facet normal 0 0 1
    outer loop
      vertex 17.05 42 14.5
      vertex 11.75 42 14.5
      vertex 17.05 25 14.5
    endloop
  endfacet
  facet normal 0 0 1
    outer loop
      vertex 17.05 42 2
      vertex 17.05 34 2
      vertex 23.8463 34 2
    endloop
  endfacet
  facet normal 0 0 1
    outer loop
      vertex 23.9464 33.8902 2
      vertex 17.05 42 2
      vertex 23.8463 34 2
    endloop
  endfacet
  facet normal 0 0 1
    outer loop
      vertex 23.9464 33.8902 2
      vertex 25.6406 33.0466 2
      vertex 17.05 42 2
    endloop
  endfacet
  facet normal 0 0 1
    outer loop
      vertex 25.6406 33.0466 2
      vertex 27.5252 32.872 2
      vertex 17.05 42 2
    endloop
  endfacet
  facet normal 0 0 1
    outer loop
      vertex 27.5252 32.872 2
      vertex 29.3456 33.3899 2
      vertex 17.05 42 2
    endloop
  endfacet
  facet normal 0 0 1
    outer loop
      vertex 26.175 39.5155 2
      vertex 27.925 39.5155 2
      vertex 17.05 42 2
    endloop
  endfacet
  facet normal 0 0 1
    outer loop
      vertex 27.925 39.5155 2
      vertex 28.8 38 2
      vertex 32.2 38 2
    endloop
  endfacet
  facet normal 0 0 1
    outer loop
      vertex 27.925 39.5155 2
      vertex 31.8522 39.8604 2
      vertex 17.05 42 2
    endloop
  endfacet
  facet normal 0 0 1
    outer loop
      vertex 31.8522 39.8604 2
      vertex 30.8559 41.4695 2
      vertex 17.05 42 2
    endloop
  endfacet
  facet normal 0 0 1
    outer loop
      vertex 26.175 36.4845 2
      vertex 25.3 38 2
      vertex 17.05 42 2
    endloop
  endfacet
  facet normal 0 0 1
    outer loop
      vertex 27.925 36.4845 2
      vertex 26.175 36.4845 2
      vertex 30.8559 34.5305 2
    endloop
  endfacet
  facet normal 0 0 1
    outer loop
      vertex 30.8559 41.4695 2
      vertex 29.3456 42.6101 2
      vertex 23.9464 42.1098 2
    endloop
  endfacet
  facet normal 0 0 1
    outer loop
      vertex 30.8559 41.4695 2
      vertex 23.8463 42 2
      vertex 17.05 42 2
    endloop
  endfacet
  facet normal 0 0 1
    outer loop
      vertex 30.8559 41.4695 2
      vertex 23.9464 42.1098 2
      vertex 23.8463 42 2
    endloop
  endfacet
  facet normal 0 0 1
    outer loop
      vertex 29.3456 33.3899 2
      vertex 26.175 36.4845 2
      vertex 17.05 42 2
    endloop
  endfacet
  facet normal 0 0 1
    outer loop
      vertex 29.3456 33.3899 2
      vertex 30.8559 34.5305 2
      vertex 26.175 36.4845 2
    endloop
  endfacet
  facet normal 0 0 1
    outer loop
      vertex 25.3 38 2
      vertex 26.175 39.5155 2
      vertex 17.05 42 2
    endloop
  endfacet
  facet normal 0 0 1
    outer loop
      vertex 32.2 38 2
      vertex 31.8522 39.8604 2
      vertex 27.925 39.5155 2
    endloop
  endfacet
  facet normal 0 0 1
    outer loop
      vertex 31.8522 36.1396 2
      vertex 32.2 38 2
      vertex 28.8 38 2
    endloop
  endfacet
  facet normal 0 0 1
    outer loop
      vertex 28.8 38 2
      vertex 27.925 36.4845 2
      vertex 31.8522 36.1396 2
    endloop
  endfacet
  facet normal 0 0 1
    outer loop
      vertex 30.8559 34.5305 2
      vertex 31.8522 36.1396 2
      vertex 27.925 36.4845 2
    endloop
  endfacet
  facet normal 0 0 1
    outer loop
      vertex 25.6406 42.9534 2
      vertex 29.3456 42.6101 2
      vertex 27.5252 43.128 2
    endloop
  endfacet
  facet normal 0 0 1
    outer loop
      vertex 25.6406 42.9534 2
      vertex 23.9464 42.1098 2
      vertex 29.3456 42.6101 2
    endloop
  endfacet
  facet normal 0.809017 -1.30515e-16 -0.587785
    outer loop
      vertex 13.35 42 8.25
      vertex 14.0755 42 9.24861
      vertex 14.0755 32 9.24861
    endloop
  endfacet
  facet normal 0.809017 -1.30515e-16 -0.587785
    outer loop
      vertex 13.35 32 8.25
      vertex 13.35 42 8.25
      vertex 14.0755 32 9.24861
    endloop
  endfacet
  facet normal 0.809017 1.30515e-16 0.587785
    outer loop
      vertex 14.0755 32 7.25139
      vertex 14.0755 42 7.25139
      vertex 13.35 42 8.25
    endloop
  endfacet
  facet normal 0.809017 1.30515e-16 0.587785
    outer loop
      vertex 13.35 32 8.25
      vertex 14.0755 32 7.25139
      vertex 13.35 42 8.25
    endloop
  endfacet
  facet normal -0.309016 -2.11177e-16 -0.951057
    outer loop
      vertex 15.2495 42 8.86717
      vertex 15.2495 32 8.86718
      vertex 14.0755 42 9.24861
    endloop
  endfacet
  facet normal -0.309016 -2.11177e-16 -0.951057
    outer loop
      vertex 14.0755 42 9.24861
      vertex 15.2495 32 8.86718
      vertex 14.0755 32 9.24861
    endloop
  endfacet
  facet normal -1 0 0
    outer loop
      vertex 15.2495 42 8.86717
      vertex 15.2495 42 7.63282
      vertex 15.2495 32 8.86718
    endloop
  endfacet
  facet normal -1 0 0
    outer loop
      vertex 15.2495 32 8.86718
      vertex 15.2495 42 7.63282
      vertex 15.2495 32 7.63283
    endloop
  endfacet
  facet normal -0.309016 2.11177e-16 0.951057
    outer loop
      vertex 15.2495 32 7.63283
      vertex 15.2495 42 7.63282
      vertex 14.0755 42 7.25139
    endloop
  endfacet
  facet normal -0.309016 2.11177e-16 0.951057
    outer loop
      vertex 14.0755 32 7.25139
      vertex 15.2495 32 7.63283
      vertex 14.0755 42 7.25139
    endloop
  endfacet
  facet normal 1 0 0
    outer loop
      vertex -15.2495 32 8.86718
      vertex -15.2495 32 7.63283
      vertex -15.2495 42 7.63282
    endloop
  endfacet
  facet normal 1 0 0
    outer loop
      vertex -15.2495 42 8.86717
      vertex -15.2495 32 8.86718
      vertex -15.2495 42 7.63282
    endloop
  endfacet
  facet normal 0.309016 2.11177e-16 0.951057
    outer loop
      vertex -15.2495 42 7.63282
      vertex -15.2495 32 7.63283
      vertex -14.0755 32 7.25139
    endloop
  endfacet
  facet normal 0.309016 2.11177e-16 0.951057
    outer loop
      vertex -14.0755 42 7.25139
      vertex -15.2495 42 7.63282
      vertex -14.0755 32 7.25139
    endloop
  endfacet
  facet normal 0.309016 -2.11177e-16 -0.951057
    outer loop
      vertex -15.2495 32 8.86718
      vertex -15.2495 42 8.86717
      vertex -14.0755 32 9.24861
    endloop
  endfacet
  facet normal 0.309016 -2.11177e-16 -0.951057
    outer loop
      vertex -14.0755 32 9.24861
      vertex -15.2495 42 8.86717
      vertex -14.0755 42 9.24861
    endloop
  endfacet
  facet normal -0.809017 -1.30515e-16 -0.587785
    outer loop
      vertex -14.0755 32 9.24861
      vertex -14.0755 42 9.24861
      vertex -13.35 32 8.25
    endloop
  endfacet
  facet normal -0.809017 -1.30515e-16 -0.587785
    outer loop
      vertex -13.35 32 8.25
      vertex -14.0755 42 9.24861
      vertex -13.35 42 8.25
    endloop
  endfacet
  facet normal -0.809017 1.30515e-16 0.587785
    outer loop
      vertex -14.0755 32 7.25139
      vertex -13.35 32 8.25
      vertex -14.0755 42 7.25139
    endloop
  endfacet
  facet normal -0.809017 1.30515e-16 0.587785
    outer loop
      vertex -14.0755 42 7.25139
      vertex -13.35 32 8.25
      vertex -13.35 42 8.25
    endloop
  endfacet
  facet normal 0 1 -2.22045e-16
    outer loop
      vertex 15.2495 32 8.86718
      vertex 15.2495 32 7.63283
      vertex 14.0755 32 9.24861
    endloop
  endfacet
  facet normal 0 1 -2.22045e-16
    outer loop
      vertex 14.0755 32 9.24861
      vertex 15.2495 32 7.63283
      vertex 14.0755 32 7.25139
    endloop
  endfacet
  facet normal 0 1 -2.22045e-16
    outer loop
      vertex 14.0755 32 9.24861
      vertex 14.0755 32 7.25139
      vertex 13.35 32 8.25
    endloop
  endfacet
  facet normal 0 1 -2.22045e-16
    outer loop
      vertex -15.2495 32 7.63283
      vertex -15.2495 32 8.86718
      vertex -14.0755 32 7.25139
    endloop
  endfacet
  facet normal 0 1 -2.22045e-16
    outer loop
      vertex -14.0755 32 7.25139
      vertex -15.2495 32 8.86718
      vertex -14.0755 32 9.24861
    endloop
  endfacet
  facet normal 0 1 -2.22045e-16
    outer loop
      vertex -14.0755 32 7.25139
      vertex -14.0755 32 9.24861
      vertex -13.35 32 8.25
    endloop
  endfacet
endsolid OpenSCAD_Model
